<svg width="5438" height="2059" viewBox="0 0 5438 2059" fill="none" xmlns="http://www.w3.org/2000/svg">
<path d="M986.628 1212.45C986.628 1132.32 1001.54 1061.98 1031.35 1001.42C1062.1 940.855 1103.56 894.269 1155.74 861.659C1207.91 829.049 1266.14 812.744 1330.43 812.744C1385.4 812.744 1433.39 823.925 1474.38 846.286C1516.31 868.647 1548.45 897.996 1570.82 934.333V823.925H1809.8V1603.77H1570.82V1493.36C1547.52 1529.7 1514.91 1559.05 1472.99 1581.41C1431.99 1603.77 1384.01 1614.95 1329.03 1614.95C1265.68 1614.95 1207.91 1598.65 1155.74 1566.04C1103.56 1532.5 1062.1 1485.44 1031.35 1424.88C1001.54 1363.39 986.628 1292.58 986.628 1212.45ZM1570.82 1213.85C1570.82 1154.22 1554.04 1107.17 1520.5 1072.69C1487.89 1038.22 1447.83 1020.98 1400.31 1020.98C1352.79 1020.98 1312.26 1038.22 1278.72 1072.69C1246.11 1106.24 1229.81 1152.82 1229.81 1212.45C1229.81 1272.08 1246.11 1319.6 1278.72 1355C1312.26 1389.48 1352.79 1406.71 1400.31 1406.71C1447.83 1406.71 1487.89 1389.48 1520.5 1355C1554.04 1320.53 1570.82 1273.48 1570.82 1213.85Z" fill="white"/>
<path d="M2459.27 1603.77L2221.68 1276.74V1603.77H1982.7V569.565H2221.68V1141.17L2457.87 823.925H2752.76L2428.52 1215.25L2755.56 1603.77H2459.27Z" fill="white"/>
<path d="M3163.88 1614.95C3095.86 1614.95 3035.3 1603.31 2982.19 1580.01C2929.09 1556.72 2887.16 1525.04 2856.41 1484.98C2825.67 1443.98 2808.43 1398.33 2804.7 1348.02H3040.89C3043.69 1375.04 3056.27 1396.93 3078.63 1413.7C3100.99 1430.47 3128.47 1438.86 3161.08 1438.86C3190.9 1438.86 3213.73 1433.27 3229.57 1422.09C3246.34 1409.98 3254.72 1394.6 3254.72 1375.97C3254.72 1353.61 3243.08 1337.3 3219.78 1327.05C3196.49 1315.87 3158.76 1303.76 3106.58 1290.72C3050.68 1277.67 3004.09 1264.16 2966.82 1250.19C2929.55 1235.28 2897.41 1212.45 2870.39 1181.7C2843.37 1150.03 2829.86 1107.63 2829.86 1054.52C2829.86 1009.8 2841.97 969.273 2866.2 932.936C2891.35 895.667 2927.69 866.318 2975.21 844.888C3023.66 823.459 3080.96 812.744 3147.11 812.744C3244.94 812.744 3321.81 836.969 3377.71 885.418C3434.54 933.867 3467.15 998.156 3475.54 1078.28H3254.72C3251 1051.26 3238.88 1029.83 3218.39 1014C3198.82 998.156 3172.73 990.236 3140.12 990.236C3112.17 990.236 3090.74 995.827 3075.83 1007.01C3060.93 1017.26 3053.47 1031.7 3053.47 1050.33C3053.47 1072.69 3065.12 1089.46 3088.41 1100.65C3112.64 1111.83 3149.9 1123.01 3200.22 1134.19C3257.98 1149.09 3305.04 1164 3341.37 1178.91C3377.71 1192.89 3409.39 1216.18 3436.41 1248.79C3464.36 1280.47 3478.8 1323.33 3479.73 1377.37C3479.73 1423.02 3466.69 1464.02 3440.6 1500.35C3415.44 1535.76 3378.64 1563.71 3330.19 1584.21C3282.67 1604.7 3227.24 1614.95 3163.88 1614.95Z" fill="white"/>
<path d="M4105.31 815.539C4194.76 815.539 4266.5 845.354 4320.54 904.984C4374.58 963.682 4401.6 1044.74 4401.6 1148.16V1603.77H4164.01L4221.57 1212.45C4221.57 1160.28 4150.5 1087.6 4123.48 1058.72C4096.46 1029.83 4059.39 973.067 4013.73 973.067C3968.08 973.067 3932.48 1029.83 3905.46 1058.72C3878.44 1087.6 3795.09 1238.54 3795.09 1290.72L3864.93 1603.77H3625.94V569.565H3864.93V928.743C3889.15 894.269 3922.23 866.784 3964.16 846.286C4006.08 825.788 4053.14 815.539 4105.31 815.539Z" fill="white"/>
<path d="M4520.15 1212.45C4520.15 1132.32 4535.06 1061.98 4564.88 1001.42C4595.62 940.855 4637.08 894.269 4689.26 861.659C4741.44 829.049 4799.67 812.744 4863.96 812.744C4918.93 812.744 4966.91 823.925 5007.91 846.286C5049.83 868.647 5081.98 897.996 5104.34 934.333V823.925H5343.33V1603.77H5104.34V1493.36C5081.05 1529.7 5048.44 1559.05 5006.51 1581.41C4965.51 1603.77 4917.53 1614.95 4862.56 1614.95C4799.2 1614.95 4741.44 1598.65 4689.26 1566.04C4637.08 1532.5 4595.62 1485.44 4564.88 1424.88C4535.06 1363.39 4520.15 1292.58 4520.15 1212.45ZM5104.34 1213.85C5104.34 1154.22 5087.57 1107.17 5054.03 1072.69C5021.42 1038.22 4981.35 1020.98 4933.84 1020.98C4886.32 1020.98 4845.79 1038.22 4812.25 1072.69C4779.64 1106.24 4763.33 1152.82 4763.33 1212.45C4763.33 1272.08 4779.64 1319.6 4812.25 1355C4845.79 1389.48 4886.32 1406.71 4933.84 1406.71C4981.35 1406.71 5021.42 1389.48 5054.03 1355C5087.57 1320.53 5104.34 1273.48 5104.34 1213.85Z" fill="white"/>
<rect x="81.0615" y="801.279" width="93.1719" height="93.1719" fill="white"/>
<rect x="379.213" y="922.401" width="93.1719" height="93.1719" fill="white"/>
<rect x="81.0615" y="1434.85" width="93.1719" height="93.1719" fill="white"/>
<rect x="689.126" y="1419.7" width="93.1719" height="41.3856" transform="rotate(94.7707 689.126 1419.7)" fill="white"/>
<rect x="42.6865" y="1374.46" width="117.586" height="268.212" transform="rotate(-41.4541 42.6865 1374.46)" fill="white"/>
<rect x="677.364" y="1397.58" width="18.6344" height="102.489" fill="white"/>
<path d="M362.489 703.617C259.581 719.955 166.062 775.504 102.511 858.283C-35.7823 1038.36 -5.45151 1292.51 171.117 1435.56C191.698 1452.26 239.722 1482.03 266.803 1495.1C308.087 1514.64 316.45 1518.01 383.288 1518.58C395.954 1518.69 410.719 1518.7 428.206 1518.7C521.365 1518.7 528.586 1518.34 528.586 1512.17C528.586 1487.84 506.56 1455.17 480.924 1442.09C454.565 1428.66 437.594 1429.02 389.57 1445.73C365.739 1454.08 341.908 1460.61 336.853 1460.61C323.132 1460.61 309.41 1448.27 298.939 1425.39C290.995 1408.69 287.024 1404.34 273.664 1398.89C257.415 1391.63 253.804 1384.73 262.47 1376.38C266.442 1372.75 265.359 1370.93 256.332 1366.21C250.193 1362.95 245.499 1358.95 245.86 1356.77C246.221 1354.96 247.305 1349.15 248.749 1344.07C252.36 1329.54 236.472 1312.84 215.891 1309.58C196.392 1306.67 188.088 1299.41 191.337 1288.52C192.782 1284.52 200.003 1267.82 207.225 1251.48C222.751 1218.45 227.084 1201.02 223.473 1185.04C221.668 1175.97 218.418 1173.06 206.142 1169.43C192.059 1165.44 191.698 1165.07 201.086 1163.62C212.28 1162.17 213.363 1158.54 205.058 1151.64C194.226 1142.56 188.81 1125.86 185.56 1089.19C183.755 1068.86 181.227 1047.08 179.783 1040.54C176.172 1021.66 185.199 978.095 199.642 949.05C208.308 931.26 221.668 912.38 239.361 893.501C263.192 868.086 291.718 843.034 285.579 853.2C284.135 855.379 281.607 868.086 279.802 881.519C268.247 961.757 314.466 1020.94 413.041 1053.25C426.039 1057.61 461.064 1065.23 490.673 1070.68C533.28 1077.94 550.973 1083.02 573.721 1093.55C640.882 1125.5 673.379 1169.79 678.435 1237.32C679.879 1259.11 679.518 1260.92 676.268 1250.03C662.186 1203.56 637.271 1173.06 595.386 1151.28C561.083 1133.49 535.808 1126.59 505.116 1126.59C482.007 1126.59 448.426 1134.21 440.844 1141.11C439.038 1142.56 446.26 1144.74 456.37 1146.2C483.451 1149.83 528.225 1167.25 552.779 1183.59C593.581 1210.46 619.578 1244.59 636.91 1293.96C643.41 1312.48 645.576 1327.37 646.659 1366.21C647.743 1393.08 646.659 1425.03 644.854 1437.01C642.688 1448.99 641.965 1459.52 642.688 1460.25C645.937 1463.52 684.934 1433.02 712.015 1406.15C861.863 1258.75 877.39 1025.66 748.845 858.283C658.214 740.286 508.727 680.743 362.489 703.617ZM230.334 783.854C231.417 787.122 232.5 794.383 232.5 800.192C232.5 808.906 231.056 810.721 223.473 810.721C212.641 810.721 211.558 802.008 220.585 791.842C226.362 785.307 226.362 785.307 220.585 787.485C217.335 788.574 214.446 788.211 214.446 786.396C214.446 776.956 227.084 775.141 230.334 783.854ZM632.577 795.472C633.661 808.543 632.577 810.721 626.439 810.721C615.245 810.721 613.801 803.823 622.828 793.657L631.494 784.581L623.55 786.759C617.051 788.937 615.607 788.211 617.412 783.491C622.106 771.873 631.494 779.134 632.577 795.472ZM431.095 970.471C431.095 982.452 430.011 984.993 424.234 984.993C413.763 984.993 411.596 978.458 418.818 970.108C422.429 966.114 423.873 962.846 422.068 963.209C415.207 964.662 412.679 963.209 414.846 959.579C415.929 957.4 420.262 955.948 424.234 955.948C430.011 955.948 431.095 958.49 431.095 970.471Z" fill="white"/>
<path fill-rule="evenodd" clip-rule="evenodd" d="M367.563 622.673C470.984 622.673 561.361 643.171 638.693 684.166C716.026 725.162 775.656 782.928 817.583 857.466C860.442 931.072 881.872 1016.32 881.872 1113.22C881.872 1209.19 860.442 1294.44 817.583 1368.98C775.656 1443.52 715.56 1501.28 637.296 1542.28C637.296 1542.28 637.362 1526.18 637.466 1500.07H695.992V829.228H399.627C384.481 827.555 368.668 826.719 352.19 826.719H238.986V829.228H99.6923V1500.07H351.43L352.19 1500.76C353.569 1500.52 354.938 1500.29 356.297 1500.07H458.256C478.348 1503.05 500.261 1507.48 526.347 1512.91C529.056 1509.66 529.754 1519.49 530.689 1532.66C532.047 1551.8 533.906 1577.99 543.161 1581.32C489.67 1596.55 430.186 1603.77 367.563 1603.77H0V622.673H367.563ZM566.281 1574.11C560.634 1576.09 554.535 1578.15 547.94 1580.29C547.196 1580.34 546.497 1580.68 545.848 1581C545.135 1581.34 544.481 1581.66 543.892 1581.53C543.643 1581.48 543.4 1581.41 543.161 1581.32C550.999 1579.09 558.709 1576.69 566.281 1574.11ZM566.281 1574.11C575.131 1571.09 583.794 1567.84 592.255 1564.34C584.866 1567.34 576.285 1570.6 566.281 1574.11ZM592.255 1564.34C611.494 1556.54 622.651 1550.53 629.815 1546.47C617.809 1553.01 605.271 1558.96 592.255 1564.34ZM629.815 1546.47C632.332 1545.1 634.826 1543.7 637.296 1542.28C635.901 1543 634.291 1543.92 632.338 1545.03L632.337 1545.03L632.309 1545.05C631.534 1545.49 630.705 1545.97 629.815 1546.47Z" fill="white"/>
<path d="M4708.44 157.34L4766.1 199.734V178.475C4766.1 178.413 4766.18 178.359 4766.18 178.306C4766.19 178.164 4766.21 178.066 4766.26 177.932C4766.31 177.665 4766.49 177.487 4766.61 177.247C4766.74 177.006 4766.82 176.775 4767.02 176.597C4767.08 176.543 4767.06 176.472 4767.11 176.428L4954.42 33.2686L4708.44 157.34Z" fill="white"/>
<path d="M4771.2 198.634L4774.61 195.225L4771.2 188.779V198.634Z" fill="white"/>
<path d="M4771.91 179.197L4779.99 194.5V194.518L4789.81 212.919L4953.82 40.1484L4771.91 179.197Z" fill="white"/>
<path d="M4856.47 242.712L4966.86 33.8506L4793.61 216.314L4856.47 242.712Z" fill="white"/>
<path d="M4722.06 245.056L4707.99 258.063C4706.2 259.737 4706.08 262.568 4707.75 264.366C4708.64 265.327 4709.84 265.799 4711.03 265.799C4712.12 265.799 4713.2 265.416 4714.07 264.615L4728.11 251.609C4729.93 249.926 4730.03 247.104 4728.35 245.288C4726.68 243.49 4723.86 243.383 4722.06 245.057V245.056Z" fill="white"/>
<path d="M4226.32 459.582C4225.75 461.986 4227.23 464.381 4229.64 464.96C4242.11 467.897 4255.15 470.078 4268.41 471.441C4268.56 471.45 4268.71 471.45 4268.87 471.45C4271.13 471.45 4273.07 469.74 4273.31 467.443C4273.57 465.004 4271.78 462.814 4269.33 462.538C4256.45 461.221 4243.79 459.102 4231.71 456.262C4229.28 455.719 4226.88 457.17 4226.32 459.583V459.582Z" fill="white"/>
<path d="M4458.76 442.652C4459.3 442.652 4459.83 442.563 4460.36 442.367C4463.53 441.156 4466.65 439.928 4469.81 438.655C4478.54 434.996 4487.42 430.972 4496.21 426.681C4498.42 425.612 4499.35 422.933 4498.26 420.707C4497.2 418.499 4494.52 417.556 4492.29 418.651C4483.65 422.853 4474.93 426.823 4466.41 430.375C4463.36 431.613 4460.29 432.814 4457.16 433.998C4454.87 434.88 4453.7 437.461 4454.6 439.767C4455.28 441.565 4456.98 442.651 4458.76 442.651L4458.76 442.652Z" fill="white"/>
<path d="M4455.85 283.369C4458.05 283.369 4459.94 281.758 4460.26 279.524C4462.08 266.544 4463.38 253.465 4464.17 240.621C4464.34 238.155 4462.44 236.036 4460 235.885C4457.56 235.787 4455.41 237.612 4455.26 240.069C4454.49 252.674 4453.19 265.53 4451.41 278.27C4451.07 280.709 4452.78 282.979 4455.23 283.326C4455.41 283.362 4455.62 283.371 4455.85 283.371L4455.85 283.369Z" fill="white"/>
<path d="M4127.67 413.57C4128.94 413.57 4130.18 413.045 4131.08 412.003C4132.67 410.125 4132.44 407.303 4130.57 405.709C4121.16 397.706 4112.07 388.697 4103.56 378.921C4101.94 377.061 4099.11 376.883 4097.25 378.485C4095.39 380.106 4095.2 382.928 4096.82 384.779C4105.62 394.901 4115.04 404.213 4124.79 412.51C4125.62 413.223 4126.65 413.57 4127.67 413.57L4127.67 413.57Z" fill="white"/>
<path d="M4437.98 358.783C4438.41 358.908 4438.84 358.979 4439.3 358.979C4441.2 358.979 4442.98 357.742 4443.56 355.81C4447.04 344.37 4450.17 332.548 4452.84 320.636L4453.42 318.018C4453.94 315.615 4452.41 313.229 4450 312.713C4447.64 312.125 4445.21 313.71 4444.69 316.131L4444.11 318.686C4441.5 330.375 4438.44 341.994 4435.01 353.218C4434.28 355.577 4435.63 358.07 4437.98 358.782L4437.98 358.783Z" fill="white"/>
<path d="M4456.85 158.595C4454.41 158.898 4452.68 161.15 4453 163.607C4454.59 175.741 4455.58 188.587 4455.92 201.763C4455.98 204.175 4457.98 206.098 4460.4 206.098H4460.51C4462.98 206.036 4464.93 203.979 4464.87 201.513C4464.51 188.026 4463.5 174.876 4461.87 162.433C4461.54 159.984 4459.25 158.293 4456.85 158.596V158.595Z" fill="white"/>
<path d="M4428.1 386.861C4425.8 385.98 4423.21 387.075 4422.29 389.336C4417.53 401.194 4412.21 412.919 4406.46 424.207C4405.34 426.415 4406.21 429.112 4408.41 430.216C4409.06 430.546 4409.74 430.697 4410.43 430.697C4412.07 430.697 4413.64 429.816 4414.41 428.276C4420.28 416.738 4425.72 404.756 4430.57 392.684C4431.49 390.387 4430.39 387.788 4428.1 386.862V386.861Z" fill="white"/>
<path d="M4426.35 449.329C4425.65 446.952 4423.17 445.59 4420.79 446.302C4408.54 449.917 4396.01 453.05 4383.56 455.632C4381.15 456.131 4379.59 458.508 4380.09 460.92C4380.44 462.576 4381.66 463.84 4383.18 464.286C4377.67 472.681 4371.82 480.969 4365.73 488.981C4364.23 490.948 4364.61 493.744 4366.58 495.231C4367.38 495.854 4368.34 496.139 4369.27 496.139C4370.62 496.139 4371.95 495.542 4372.83 494.376C4380.72 484.013 4388.22 473.188 4395.1 462.237C4404.55 460.065 4414 457.608 4423.31 454.857C4425.68 454.18 4427.04 451.706 4426.35 449.328L4426.35 449.329Z" fill="white"/>
<path d="M4392.15 27.8884L4389.91 26.366C4387.85 25.0129 4385.08 25.5737 4383.72 27.6302C4382.38 29.6956 4382.93 32.4642 4385 33.8173L4387.09 35.2239C4396.51 41.6336 4405.13 49.5389 4412.72 58.7434C4413.58 59.8117 4414.87 60.3636 4416.16 60.3636C4417.16 60.3636 4418.17 60.0431 4419.01 59.3576C4420.9 57.7908 4421.18 54.9687 4419.61 53.0637C4411.49 43.1998 4402.24 34.7246 4392.15 27.8873L4392.15 27.8884Z" fill="white"/>
<path d="M4119.24 676.957C4120 678.595 4121.62 679.539 4123.28 679.539C4123.93 679.539 4124.56 679.414 4125.16 679.13C4137.02 673.619 4148.7 667.939 4160.16 662.081C4162.36 660.96 4163.22 658.262 4162.1 656.072C4160.98 653.891 4158.3 653.001 4156.09 654.131C4144.73 659.936 4133.16 665.571 4121.4 671.028C4119.18 672.052 4118.21 674.705 4119.24 676.957L4119.24 676.957Z" fill="white"/>
<path d="M4685.76 284.511C4684.11 282.686 4681.28 282.517 4679.45 284.19C4669.89 292.817 4660.24 301.372 4650.49 309.802C4648.63 311.413 4648.42 314.244 4650.02 316.096C4650.9 317.12 4652.15 317.636 4653.42 317.636C4654.44 317.636 4655.48 317.289 4656.34 316.55C4666.14 308.093 4675.82 299.484 4685.44 290.804C4687.27 289.166 4687.41 286.344 4685.76 284.51L4685.76 284.511Z" fill="white"/>
<path d="M4445.64 126.163C4446.19 128.139 4447.99 129.457 4449.96 129.457C4450.34 129.457 4450.73 129.403 4451.13 129.305C4453.51 128.656 4454.92 126.207 4454.27 123.822C4450.66 110.468 4446.1 97.9867 4440.73 86.7261C4439.67 84.4915 4437 83.5569 4434.79 84.6073C4432.55 85.6667 4431.61 88.3374 4432.68 90.563C4437.81 101.344 4442.16 113.318 4445.64 126.164L4445.64 126.163Z" fill="white"/>
<path d="M4126.6 44.8246C4115.03 51.7419 4104.18 59.3711 4094.36 67.4546C4092.46 69.0214 4092.19 71.8435 4093.77 73.7485C4094.65 74.8168 4095.92 75.3688 4097.21 75.3688C4098.22 75.3688 4099.22 75.0483 4100.06 74.3628C4109.54 66.5553 4120.02 59.1841 4131.2 52.4717C4133.32 51.2075 4134.01 48.4745 4132.74 46.3557C4131.47 44.2458 4128.72 43.5513 4126.6 44.8244L4126.6 44.8246Z" fill="white"/>
<path d="M4314.15 10.1142C4327.3 11.592 4339.73 14.2093 4351.14 17.8861C4351.6 18.0374 4352.05 18.0997 4352.5 18.0997C4354.38 18.0997 4356.14 16.8979 4356.74 15.0105C4357.51 12.6604 4356.21 10.1498 4353.86 9.39318C4341.89 5.52955 4328.86 2.77878 4315.13 1.23862C4312.77 0.935941 4310.47 2.71643 4310.18 5.18247C4309.93 7.63059 4311.69 9.8474 4314.15 10.1145L4314.15 10.1142Z" fill="white"/>
<path d="M4317.51 553.592C4318.61 553.592 4319.72 553.2 4320.58 552.363C4330.15 543.318 4339.33 533.935 4347.88 524.454C4349.53 522.629 4349.39 519.807 4347.56 518.152C4345.74 516.496 4342.91 516.62 4341.24 518.472C4332.84 527.766 4323.82 536.98 4314.42 545.873C4312.64 547.573 4312.56 550.386 4314.26 552.176C4315.15 553.128 4316.34 553.591 4317.51 553.591L4317.51 553.592Z" fill="white"/>
<path d="M4043.21 285.809C4043.67 285.809 4044.13 285.747 4044.59 285.596C4046.94 284.83 4048.23 282.319 4047.46 279.969C4043.47 267.675 4040.42 255.246 4038.39 243.006C4037.98 240.584 4035.65 238.946 4033.26 239.329C4030.82 239.738 4029.18 242.035 4029.59 244.474C4031.7 257.152 4034.85 270.025 4038.97 282.737C4039.57 284.606 4041.32 285.808 4043.21 285.808L4043.21 285.809Z" fill="white"/>
<path d="M4627.16 335.241C4625.62 333.318 4622.8 333.033 4620.89 334.564C4610.33 343.128 4600.37 350.847 4590.42 358.209C4588.45 359.678 4588.02 362.473 4589.5 364.45C4590.37 365.634 4591.72 366.266 4593.09 366.266C4594.01 366.266 4594.94 365.999 4595.74 365.402C4605.78 357.978 4615.85 350.161 4626.52 341.534C4628.43 339.958 4628.72 337.145 4627.16 335.24L4627.16 335.241Z" fill="white"/>
<path d="M4030.88 209.597H4030.94C4033.38 209.597 4035.38 207.647 4035.41 205.181C4035.56 192.193 4036.99 179.579 4039.65 167.684C4040.19 165.281 4038.68 162.886 4036.27 162.334C4033.88 161.827 4031.48 163.304 4030.94 165.717C4028.11 178.225 4026.61 191.481 4026.46 205.092C4026.44 207.558 4028.41 209.569 4030.88 209.596L4030.88 209.597Z" fill="white"/>
<path d="M4524.59 406.712C4525.4 408.145 4526.91 408.946 4528.45 408.946C4529.21 408.946 4529.98 408.75 4530.69 408.35C4541.68 401.993 4552.83 395.076 4563.85 387.803C4565.9 386.45 4566.46 383.672 4565.11 381.616C4563.76 379.577 4560.99 379.016 4558.92 380.352C4548.07 387.536 4537.06 394.364 4526.22 400.631C4524.09 401.851 4523.35 404.584 4524.59 406.712L4524.59 406.712Z" fill="white"/>
<path d="M4072.49 94.6187C4070.61 93.0341 4067.79 93.2744 4066.2 95.1795C4057.92 105.043 4050.9 115.468 4045.36 126.124L4044.27 128.216C4043.16 130.424 4044.03 133.121 4046.22 134.225C4046.87 134.555 4047.57 134.706 4048.24 134.706C4049.86 134.706 4051.43 133.825 4052.22 132.285L4053.27 130.264C4058.52 120.168 4065.19 110.304 4073.05 100.912C4074.63 99.0338 4074.38 96.2117 4072.49 94.6182L4072.49 94.6187Z" fill="white"/>
<path d="M4014.28 715.244C4002.27 719.695 3990.12 724.04 3977.88 728.286C3975.55 729.087 3974.32 731.651 3975.12 733.975C3975.76 735.826 3977.5 736.957 3979.35 736.957C3979.83 736.957 3980.33 736.877 3980.82 736.717C3993.11 732.443 4005.3 728.063 4017.4 723.595C4019.71 722.74 4020.9 720.158 4020.04 717.861C4019.16 715.573 4016.58 714.398 4014.29 715.244L4014.28 715.244Z" fill="white"/>
<path d="M4073.07 353.45C4073.92 354.768 4075.36 355.453 4076.81 355.453C4077.65 355.453 4078.49 355.213 4079.26 354.723C4081.32 353.37 4081.88 350.602 4080.53 348.536C4073.56 337.942 4067.23 326.779 4061.7 315.331C4060.64 313.114 4057.97 312.179 4055.74 313.248C4053.53 314.316 4052.59 316.996 4053.66 319.221C4059.36 331.017 4065.88 342.52 4073.07 353.452L4073.07 353.45Z" fill="white"/>
<path d="M4155.23 429.455C4153.96 431.565 4154.64 434.307 4156.75 435.58C4167.85 442.284 4179.74 448.177 4192.08 453.118C4192.61 453.332 4193.17 453.421 4193.73 453.421C4195.5 453.421 4197.19 452.361 4197.88 450.617C4198.8 448.32 4197.67 445.729 4195.39 444.812C4183.5 440.067 4172.05 434.387 4161.37 427.924C4159.25 426.66 4156.51 427.337 4155.23 429.455L4155.23 429.455Z" fill="white"/>
<path d="M4052.05 710.048C4052.6 710.048 4053.15 709.95 4053.69 709.745C4065.82 704.956 4077.82 700.033 4089.66 694.994C4091.93 694.023 4092.99 691.397 4092.02 689.127C4091.05 686.857 4088.4 685.833 4086.16 686.768C4074.39 691.798 4062.47 696.685 4050.42 701.448C4048.13 702.338 4047 704.947 4047.91 707.243C4048.59 708.988 4050.28 710.048 4052.05 710.048H4052.05Z" fill="white"/>
<path d="M4307.55 473.122H4307.61C4320.41 472.944 4333.58 472.098 4346.72 470.612C4349.17 470.344 4350.93 468.119 4350.65 465.662C4350.37 463.222 4348.07 461.389 4345.71 461.727C4332.86 463.178 4320.01 464.024 4307.49 464.193C4305.02 464.219 4303.04 466.249 4303.08 468.706C4303.12 471.154 4305.11 473.122 4307.55 473.122L4307.55 473.122Z" fill="white"/>
<path d="M4233.03 9.4544C4233.41 11.6266 4235.29 13.14 4237.42 13.14C4237.68 13.14 4237.94 13.1311 4238.19 13.0777C4250.93 10.861 4263.69 9.45453 4276.13 8.92032C4278.59 8.8224 4280.51 6.72143 4280.39 4.27317C4280.28 1.79838 4278.24 0.0266646 4275.74 0C4262.93 0.551957 4249.77 1.99416 4236.66 4.29096C4234.23 4.70936 4232.61 7.03283 4233.03 9.4543L4233.03 9.4544Z" fill="white"/>
<path d="M4190.08 635.89C4187.94 637.119 4187.19 639.843 4188.41 641.988C4189.23 643.431 4190.74 644.25 4192.3 644.25C4193.05 644.25 4193.8 644.054 4194.5 643.671C4206.01 637.137 4217.25 630.398 4227.92 623.649C4230.02 622.323 4230.63 619.563 4229.31 617.489C4227.99 615.424 4225.22 614.8 4223.15 616.109C4212.6 622.768 4201.48 629.445 4190.08 635.89H4190.08Z" fill="white"/>
<path d="M3867.55 764.243C3855.24 768.036 3842.88 771.802 3830.53 775.541C3828.17 776.253 3826.82 778.745 3827.54 781.113C3828.12 783.036 3829.9 784.283 3831.82 784.283C3832.24 784.283 3832.67 784.229 3833.11 784.087C3845.5 780.348 3857.86 776.582 3870.19 772.763C3872.55 772.033 3873.87 769.531 3873.14 767.172C3872.41 764.831 3869.89 763.495 3867.55 764.243L3867.55 764.243Z" fill="white"/>
<path d="M4198.43 13.3516C4185.86 17.1261 4173.45 21.6753 4161.56 26.8655C4159.3 27.8626 4158.26 30.4887 4159.25 32.75C4159.98 34.4325 4161.63 35.4296 4163.35 35.4296C4163.94 35.4296 4164.55 35.3139 4165.14 35.0735C4176.71 30.0168 4188.78 25.6015 4201.02 21.9158C4203.38 21.2036 4204.72 18.7111 4204 16.3518C4203.3 13.9748 4200.8 12.5862 4198.43 13.3517L4198.43 13.3516Z" fill="white"/>
<path d="M3941.23 740.747C3929.04 744.78 3916.79 748.759 3904.47 752.676C3902.11 753.433 3900.82 755.944 3901.56 758.294C3902.16 760.181 3903.92 761.392 3905.81 761.392C3906.25 761.392 3906.71 761.329 3907.16 761.187C3919.52 757.243 3931.82 753.273 3944.03 749.213C3946.38 748.439 3947.65 745.911 3946.86 743.569C3946.11 741.246 3943.58 739.946 3941.23 740.747L3941.23 740.747Z" fill="white"/>
<path d="M4255.04 594.595C4253.04 596.028 4252.58 598.824 4254.01 600.827C4254.88 602.037 4256.26 602.687 4257.65 602.687C4258.54 602.687 4259.47 602.42 4260.24 601.859C4270.95 594.203 4281.38 586.227 4291.24 578.162C4293.15 576.604 4293.42 573.782 4291.87 571.886C4290.3 569.972 4287.49 569.705 4285.57 571.263C4275.87 579.177 4265.6 587.038 4255.04 594.595L4255.04 594.595Z" fill="white"/>
<path d="M3775.08 801.279C3775.49 801.279 3775.92 801.225 3776.35 801.101L3794.71 795.617C3797.07 794.905 3798.41 792.43 3797.71 790.053C3797 787.694 3794.52 786.279 3792.14 787.071L3773.8 792.537C3771.43 793.249 3770.09 795.742 3770.79 798.101C3771.37 800.042 3773.15 801.279 3775.08 801.279H3775.08Z" fill="white"/>
<path d="M97.2732 2013.14C86.6548 2013.14 76.4789 2011.75 66.7455 2008.97C57.012 2006.06 49.1747 2002.34 43.2335 1997.78L53.6622 1974.65C59.3506 1978.7 66.0502 1982.05 73.7612 1984.7C81.5985 1987.23 89.499 1988.49 97.4628 1988.49C103.53 1988.49 108.397 1987.92 112.063 1986.79C115.855 1985.52 118.636 1983.82 120.406 1981.67C122.176 1979.52 123.061 1977.05 123.061 1974.27C123.061 1970.73 121.67 1967.95 118.889 1965.93C116.108 1963.78 112.442 1962.07 107.891 1960.81C103.341 1959.42 98.2844 1958.16 92.7225 1957.02C87.2869 1955.75 81.7881 1954.24 76.2261 1952.47C70.7906 1950.7 65.7974 1948.42 61.2467 1945.64C56.696 1942.86 52.9669 1939.19 50.0595 1934.64C47.2786 1930.09 45.8881 1924.28 45.8881 1917.2C45.8881 1909.61 47.9106 1902.73 51.9557 1896.53C56.1272 1890.21 62.3212 1885.22 70.5377 1881.55C78.8807 1877.76 89.3094 1875.86 101.824 1875.86C110.167 1875.86 118.383 1876.88 126.474 1878.9C134.564 1880.79 141.706 1883.7 147.9 1887.62L138.419 1910.94C132.225 1907.4 126.031 1904.81 119.837 1903.17C113.643 1901.4 107.575 1900.51 101.634 1900.51C95.6931 1900.51 90.8263 1901.21 87.0341 1902.6C83.2418 1903.99 80.524 1905.82 78.8807 1908.1C77.2374 1910.25 76.4157 1912.78 76.4157 1915.68C76.4157 1919.1 77.8062 1921.88 80.5872 1924.03C83.3682 1926.05 87.0341 1927.69 91.5848 1928.96C96.1355 1930.22 101.129 1931.48 106.564 1932.75C112.126 1934.01 117.625 1935.47 123.061 1937.11C128.623 1938.75 133.679 1940.96 138.23 1943.75C142.78 1946.53 146.446 1950.19 149.227 1954.74C152.135 1959.29 153.588 1965.05 153.588 1972C153.588 1979.46 151.502 1986.28 147.331 1992.48C143.159 1998.67 136.902 2003.66 128.559 2007.46C120.343 2011.25 109.914 2013.14 97.2732 2013.14ZM365.183 2010.87V1903.17H322.71V1878.14H438.374V1903.17H395.9V2010.87H365.183ZM595.754 2010.87L654.913 1878.14H685.251L744.6 2010.87H712.366L663.825 1893.69H675.96L627.229 2010.87H595.754ZM625.333 1982.43L633.487 1959.1H701.747L710.09 1982.43H625.333ZM948.179 2010.87V1956.64L955.195 1975.22L896.794 1878.14H929.407L974.156 1952.66H955.384L1000.32 1878.14H1030.47L972.07 1975.22L978.896 1956.64V2010.87H948.179ZM1491.42 2013.14C1480.93 2013.14 1471.19 2011.44 1462.22 2008.02C1453.37 2004.61 1445.66 1999.81 1439.08 1993.61C1432.64 1987.42 1427.58 1980.15 1423.91 1971.81C1420.38 1963.46 1418.61 1954.36 1418.61 1944.5C1418.61 1934.64 1420.38 1925.54 1423.91 1917.2C1427.58 1908.86 1432.7 1901.59 1439.27 1895.39C1445.85 1889.2 1453.56 1884.4 1462.41 1880.98C1471.25 1877.57 1480.86 1875.86 1491.23 1875.86C1501.72 1875.86 1511.33 1877.57 1520.05 1880.98C1528.9 1884.4 1536.54 1889.2 1542.99 1895.39C1549.57 1901.59 1554.68 1908.86 1558.35 1917.2C1562.02 1925.42 1563.85 1934.52 1563.85 1944.5C1563.85 1954.36 1562.02 1963.53 1558.35 1972C1554.68 1980.34 1549.57 1987.61 1542.99 1993.8C1536.54 1999.87 1528.9 2004.61 1520.05 2008.02C1511.33 2011.44 1501.78 2013.14 1491.42 2013.14ZM1491.23 1986.98C1497.17 1986.98 1502.6 1985.97 1507.53 1983.94C1512.59 1981.92 1517.01 1979.01 1520.81 1975.22C1524.6 1971.43 1527.51 1966.94 1529.53 1961.76C1531.68 1956.58 1532.75 1950.82 1532.75 1944.5C1532.75 1938.18 1531.68 1932.43 1529.53 1927.25C1527.51 1922.07 1524.6 1917.58 1520.81 1913.79C1517.14 1909.99 1512.78 1907.09 1507.72 1905.06C1502.67 1903.04 1497.17 1902.03 1491.23 1902.03C1485.29 1902.03 1479.79 1903.04 1474.73 1905.06C1469.8 1907.09 1465.44 1909.99 1461.65 1913.79C1457.86 1917.58 1454.88 1922.07 1452.74 1927.25C1450.71 1932.43 1449.7 1938.18 1449.7 1944.5C1449.7 1950.7 1450.71 1956.45 1452.74 1961.76C1454.88 1966.94 1457.79 1971.43 1461.46 1975.22C1465.25 1979.01 1469.67 1981.92 1474.73 1983.94C1479.79 1985.97 1485.29 1986.98 1491.23 1986.98ZM1751.9 2010.87V1878.14H1777.31L1855.62 1973.7H1843.29V1878.14H1873.63V2010.87H1848.41L1769.91 1915.3H1782.24V2010.87H1751.9ZM2098.25 1931.61H2162.15V1955.5H2098.25V1931.61ZM2100.52 1986.22H2172.77V2010.87H2070V1878.14H2170.3V1902.79H2100.52V1986.22ZM2624.44 2013.14C2613.83 2013.14 2603.65 2011.75 2593.92 2008.97C2584.18 2006.06 2576.34 2002.34 2570.4 1997.78L2580.83 1974.65C2586.52 1978.7 2593.22 1982.05 2600.93 1984.7C2608.77 1987.23 2616.67 1988.49 2624.63 1988.49C2630.7 1988.49 2635.57 1987.92 2639.23 1986.79C2643.03 1985.52 2645.81 1983.82 2647.58 1981.67C2649.35 1979.52 2650.23 1977.05 2650.23 1974.27C2650.23 1970.73 2648.84 1967.95 2646.06 1965.93C2643.28 1963.78 2639.61 1962.07 2635.06 1960.81C2630.51 1959.42 2625.45 1958.16 2619.89 1957.02C2614.46 1955.75 2608.96 1954.24 2603.4 1952.47C2597.96 1950.7 2592.97 1948.42 2588.42 1945.64C2583.87 1942.86 2580.14 1939.19 2577.23 1934.64C2574.45 1930.09 2573.06 1924.28 2573.06 1917.2C2573.06 1909.61 2575.08 1902.73 2579.13 1896.53C2583.3 1890.21 2589.49 1885.22 2597.71 1881.55C2606.05 1877.76 2616.48 1875.86 2628.99 1875.86C2637.34 1875.86 2645.55 1876.88 2653.64 1878.9C2661.73 1880.79 2668.88 1883.7 2675.07 1887.62L2665.59 1910.94C2659.4 1907.4 2653.2 1904.81 2647.01 1903.17C2640.81 1901.4 2634.75 1900.51 2628.8 1900.51C2622.86 1900.51 2618 1901.21 2614.2 1902.6C2610.41 1903.99 2607.69 1905.82 2606.05 1908.1C2604.41 1910.25 2603.59 1912.78 2603.59 1915.68C2603.59 1919.1 2604.98 1921.88 2607.76 1924.03C2610.54 1926.05 2614.2 1927.69 2618.75 1928.96C2623.31 1930.22 2628.3 1931.48 2633.73 1932.75C2639.3 1934.01 2644.8 1935.47 2650.23 1937.11C2655.79 1938.75 2660.85 1940.96 2665.4 1943.75C2669.95 1946.53 2673.62 1950.19 2676.4 1954.74C2679.3 1959.29 2680.76 1965.05 2680.76 1972C2680.76 1979.46 2678.67 1986.28 2674.5 1992.48C2670.33 1998.67 2664.07 2003.66 2655.73 2007.46C2647.51 2011.25 2637.08 2013.14 2624.44 2013.14ZM2892.35 2010.87V1903.17H2849.88V1878.14H2965.54V1903.17H2923.07V2010.87H2892.35ZM3175.29 1931.61H3239.19V1955.5H3175.29V1931.61ZM3177.56 1986.22H3249.8V2010.87H3147.03V1878.14H3247.34V1902.79H3177.56V1986.22ZM3439.21 2010.87V1878.14H3496.66C3508.54 1878.14 3518.78 1880.1 3527.38 1884.02C3535.97 1887.81 3542.61 1893.31 3547.29 1900.51C3551.97 1907.72 3554.3 1916.31 3554.3 1926.3C3554.3 1936.16 3551.97 1944.69 3547.29 1951.9C3542.61 1959.1 3535.97 1964.67 3527.38 1968.58C3518.78 1972.38 3508.54 1974.27 3496.66 1974.27H3456.27L3469.93 1960.43V2010.87H3439.21ZM3469.93 1963.84L3456.27 1949.24H3494.95C3504.44 1949.24 3511.51 1947.22 3516.19 1943.18C3520.87 1939.13 3523.21 1933.51 3523.21 1926.3C3523.21 1918.97 3520.87 1913.28 3516.19 1909.24C3511.51 1905.19 3504.44 1903.17 3494.95 1903.17H3456.27L3469.93 1888.57V1963.84ZM3944.27 2010.87L4003.43 1878.14H4033.76L4093.11 2010.87H4060.88L4012.34 1893.69H4024.47L3975.74 2010.87H3944.27ZM3973.85 1982.43L3982 1959.1H4050.26L4058.6 1982.43H3973.85ZM4362.86 1878.14H4393.58V2010.87H4362.86V1878.14ZM4302.56 2010.87H4271.85V1878.14H4302.56V2010.87ZM4365.14 1956.45H4300.29V1930.47H4365.14V1956.45ZM4618.2 1931.61H4682.1V1955.5H4618.2V1931.61ZM4620.47 1986.22H4692.71V2010.87H4589.94V1878.14H4690.25V1902.79H4620.47V1986.22ZM4864.67 2010.87L4923.83 1878.14H4954.17L5013.52 2010.87H4981.29L4932.75 1893.69H4944.88L4896.15 2010.87H4864.67ZM4894.25 1982.43L4902.41 1959.1H4970.67L4979.01 1982.43H4894.25ZM5192.25 2010.87V1878.14H5252.55C5266.96 1878.14 5279.67 1880.92 5290.66 1886.48C5301.66 1891.92 5310.26 1899.57 5316.45 1909.43C5322.64 1919.29 5325.74 1930.98 5325.74 1944.5C5325.74 1957.9 5322.64 1969.6 5316.45 1979.58C5310.26 1989.44 5301.66 1997.15 5290.66 2002.71C5279.67 2008.15 5266.96 2010.87 5252.55 2010.87H5192.25ZM5222.97 1985.65H5251.03C5259.88 1985.65 5267.53 1984.01 5273.98 1980.72C5280.55 1977.31 5285.61 1972.5 5289.15 1966.31C5292.81 1960.12 5294.64 1952.85 5294.64 1944.5C5294.64 1936.03 5292.81 1928.77 5289.15 1922.7C5285.61 1916.5 5280.55 1911.76 5273.98 1908.48C5267.53 1905.06 5259.88 1903.36 5251.03 1903.36H5222.97V1985.65Z" fill="white"/>
<path d="M3920.61 1603.33H3801.84H3626.39L3801.84 1143.12L4012.38 931.229L4212.12 1143.12L4401.07 1603.33H4104.15V1301.02H4189.18L4012.38 1002.76L3832.88 1301.02H3920.61V1603.33Z" fill="white"/>
<path d="M4892.59 647.028V614.794L4975.48 536.511C4982.03 530.576 4986.84 525.255 4989.91 520.547C4992.98 515.84 4995.02 511.542 4996.05 507.654C4997.28 503.765 4997.89 500.184 4997.89 496.909C4997.89 488.313 4994.92 481.764 4988.99 477.262C4983.26 472.554 4974.76 470.201 4963.51 470.201C4954.5 470.201 4946.11 471.94 4938.33 475.42C4930.76 478.899 4924.31 484.322 4918.99 491.69L4882.77 468.359C4890.95 456.079 4902.42 446.358 4917.15 439.194C4931.89 432.031 4948.87 428.45 4968.11 428.45C4984.08 428.45 4997.99 431.11 5009.86 436.432C5021.94 441.548 5031.25 448.814 5037.8 458.228C5044.55 467.642 5047.93 478.899 5047.93 491.997C5047.93 498.956 5047.01 505.914 5045.17 512.873C5043.53 519.626 5040.05 526.79 5034.73 534.362C5029.61 541.935 5022.04 550.428 5012.01 559.842L4943.25 624.618L4933.73 606.505H5054.99V647.028H4892.59ZM5149.73 649.484C5141.54 649.484 5134.48 646.721 5128.55 641.195C5122.82 635.465 5119.95 628.199 5119.95 619.399C5119.95 610.599 5122.82 603.538 5128.55 598.217C5134.48 592.691 5141.54 589.928 5149.73 589.928C5158.12 589.928 5165.18 592.691 5170.91 598.217C5176.64 603.538 5179.51 610.599 5179.51 619.399C5179.51 628.199 5176.64 635.465 5170.91 641.195C5165.18 646.721 5158.12 649.484 5149.73 649.484ZM5333.01 650.712C5315.41 650.712 5299.65 646.414 5285.74 637.819C5271.82 629.018 5260.87 616.329 5252.89 599.751C5244.91 583.174 5240.92 563.117 5240.92 539.581C5240.92 516.045 5244.91 495.988 5252.89 479.41C5260.87 462.833 5271.82 450.246 5285.74 441.65C5299.65 432.85 5315.41 428.45 5333.01 428.45C5350.82 428.45 5366.58 432.85 5380.29 441.65C5394.21 450.246 5405.16 462.833 5413.14 479.41C5421.12 495.988 5425.11 516.045 5425.11 539.581C5425.11 563.117 5421.12 583.174 5413.14 599.751C5405.16 616.329 5394.21 629.018 5380.29 637.819C5366.58 646.414 5350.82 650.712 5333.01 650.712ZM5333.01 608.654C5341.4 608.654 5348.67 606.301 5354.81 601.593C5361.15 596.886 5366.07 589.416 5369.55 579.183C5373.23 568.95 5375.07 555.749 5375.07 539.581C5375.07 523.413 5373.23 510.212 5369.55 499.979C5366.07 489.746 5361.15 482.276 5354.81 477.569C5348.67 472.861 5341.4 470.508 5333.01 470.508C5324.83 470.508 5317.56 472.861 5311.22 477.569C5305.08 482.276 5300.16 489.746 5296.48 499.979C5293 510.212 5291.26 523.413 5291.26 539.581C5291.26 555.749 5293 568.95 5296.48 579.183C5300.16 589.416 5305.08 596.886 5311.22 601.593C5317.56 606.301 5324.83 608.654 5333.01 608.654Z" fill="white"/>
</svg>
