<svg width="2015" height="802" viewBox="0 0 2015 802" fill="none" xmlns="http://www.w3.org/2000/svg">
<rect x="1406.51" y="372.409" width="146.304" height="222.781" fill="#ff9a92"/>
<path d="M365.524 449.187C365.524 419.501 371.047 393.44 382.093 371.003C393.484 348.566 408.845 331.307 428.175 319.226C447.505 307.144 469.079 301.104 492.896 301.104C513.262 301.104 531.039 305.246 546.227 313.53C561.76 321.815 573.669 332.688 581.953 346.15V305.246H670.492V594.163H581.953V553.259C573.324 566.721 561.242 577.594 545.709 585.878C530.521 594.163 512.744 598.305 492.379 598.305C468.906 598.305 447.505 592.264 428.175 580.183C408.845 567.756 393.484 550.325 382.093 527.888C371.047 505.106 365.524 478.872 365.524 449.187ZM581.953 449.704C581.953 427.613 575.74 410.181 563.313 397.409C551.232 384.638 536.389 378.252 518.785 378.252C501.181 378.252 486.165 384.638 473.739 397.409C461.657 409.836 455.617 427.095 455.617 449.187C455.617 471.278 461.657 488.882 473.739 501.999C486.165 514.771 501.181 521.157 518.785 521.157C536.389 521.157 551.232 514.771 563.313 501.999C575.74 489.228 581.953 471.796 581.953 449.704ZM911.107 594.163L823.085 473.004V594.163H734.546V211.011H823.085V422.78L910.589 305.246H1019.84L899.716 450.222L1020.87 594.163H911.107ZM1172.15 598.305C1146.95 598.305 1124.51 593.99 1104.84 585.361C1085.16 576.731 1069.63 564.995 1058.24 550.152C1046.85 534.964 1040.46 518.05 1039.08 499.411H1126.58C1127.62 509.421 1132.28 517.533 1140.56 523.746C1148.85 529.959 1159.03 533.066 1171.11 533.066C1182.16 533.066 1190.62 530.995 1196.48 526.852C1202.7 522.365 1205.8 516.67 1205.8 509.766C1205.8 501.482 1201.49 495.441 1192.86 491.644C1184.23 487.502 1170.25 483.014 1150.92 478.182C1130.21 473.349 1112.95 468.344 1099.14 463.166C1085.34 457.644 1073.43 449.187 1063.42 437.796C1053.41 426.059 1048.4 410.354 1048.4 390.678C1048.4 374.11 1052.89 359.094 1061.86 345.632C1071.18 331.825 1084.65 320.952 1102.25 313.012C1120.2 305.073 1141.43 301.104 1165.94 301.104C1202.18 301.104 1230.66 310.078 1251.37 328.028C1272.42 345.977 1284.51 369.795 1287.61 399.48H1205.8C1204.42 389.47 1199.94 381.531 1192.34 375.663C1185.09 369.795 1175.43 366.861 1163.35 366.861C1152.99 366.861 1145.05 368.932 1139.53 373.074C1134.01 376.871 1131.24 382.221 1131.24 389.125C1131.24 397.409 1135.56 403.623 1144.19 407.765C1153.16 411.907 1166.97 416.049 1185.61 420.191C1207.01 425.714 1224.44 431.237 1237.91 436.76C1251.37 441.938 1263.1 450.567 1273.11 462.649C1283.47 474.385 1288.82 490.263 1289.17 510.284C1289.17 527.198 1284.33 542.386 1274.67 555.848C1265.35 568.965 1251.71 579.32 1233.76 586.914C1216.16 594.508 1195.62 598.305 1172.15 598.305ZM1520.93 302.139C1554.07 302.139 1580.65 313.185 1600.67 335.277C1620.69 357.023 1630.7 387.054 1630.7 425.369V594.163H1542.68V437.278C1542.68 417.948 1537.67 402.932 1527.66 392.232C1517.65 381.531 1504.19 376.181 1487.27 376.181C1470.36 376.181 1456.9 381.531 1446.89 392.232C1436.88 402.932 1431.87 417.948 1431.87 437.278V594.163H1343.33V211.011H1431.87V344.079C1440.85 331.307 1453.1 321.124 1468.63 313.53C1484.17 305.936 1501.6 302.139 1520.93 302.139ZM1674.62 449.187C1674.62 419.501 1680.14 393.44 1691.19 371.003C1702.58 348.566 1717.94 331.307 1737.27 319.226C1756.6 307.144 1778.17 301.104 1801.99 301.104C1822.36 301.104 1840.13 305.246 1855.32 313.53C1870.85 321.815 1882.76 332.688 1891.05 346.15V305.246H1979.59V594.163H1891.05V553.259C1882.42 566.721 1870.34 577.594 1854.8 585.878C1839.62 594.163 1821.84 598.305 1801.47 598.305C1778 598.305 1756.6 592.264 1737.27 580.183C1717.94 567.756 1702.58 550.325 1691.19 527.888C1680.14 505.106 1674.62 478.872 1674.62 449.187ZM1891.05 449.704C1891.05 427.613 1884.83 410.181 1872.41 397.409C1860.33 384.638 1845.48 378.252 1827.88 378.252C1810.27 378.252 1795.26 384.638 1782.83 397.409C1770.75 409.836 1764.71 427.095 1764.71 449.187C1764.71 471.278 1770.75 488.882 1782.83 501.999C1795.26 514.771 1810.27 521.157 1827.88 521.157C1845.48 521.157 1860.33 514.771 1872.41 501.999C1884.83 489.228 1891.05 471.796 1891.05 449.704Z" fill="#ff9a92"/>
<path fill-rule="evenodd" clip-rule="evenodd" d="M136.174 230.687C174.489 230.687 207.972 238.281 236.622 253.469C265.272 268.657 287.364 290.058 302.897 317.673C318.775 344.942 326.714 376.526 326.714 412.425C326.714 447.979 318.775 479.563 302.897 507.177C287.364 534.792 265.099 556.193 236.104 571.381C207.454 586.569 174.144 594.163 136.174 594.163H0V230.687H136.174ZM36.9339 307.211H88.5391V306.282H130.479C136.585 306.282 142.444 306.591 148.057 307.211H257.85V555.742H36.9339V307.211Z" fill="#ff9a92"/>
<path d="M134.294 260.675C96.1693 266.727 61.5223 287.307 37.9783 317.975C-13.2565 384.691 -2.01964 478.847 63.3951 531.844C71.0201 538.031 88.8118 549.061 98.8448 553.903C117.038 562.511 117.974 562.646 158.641 562.646C193.154 562.646 195.83 562.511 195.83 560.225C195.83 551.213 187.67 539.107 178.172 534.265C168.406 529.288 162.119 529.422 144.327 535.61C135.498 538.703 126.669 541.125 124.797 541.125C119.713 541.125 114.63 536.551 110.751 528.077C107.808 521.89 106.336 520.276 101.386 518.258C95.3667 515.568 94.029 513.012 97.2395 509.919C98.711 508.574 98.3097 507.901 94.9654 506.152C92.6912 504.942 90.9522 503.462 91.086 502.655C91.2197 501.983 91.621 499.831 92.1561 497.947C93.4939 492.567 87.6079 486.38 79.9828 485.169C72.7591 484.093 69.6824 481.403 70.8863 477.368C71.4214 475.888 74.0969 469.701 76.7723 463.648C82.5245 451.408 84.1298 444.951 82.7921 439.033C82.1232 435.67 80.9193 434.594 76.371 433.249C71.1539 431.769 71.0201 431.635 74.4982 431.097C78.6451 430.559 79.0464 429.214 75.9697 426.658C71.9565 423.295 69.9499 417.108 68.746 403.523C68.0771 395.99 67.1407 387.92 66.6056 385.498C65.2679 378.504 68.6122 362.363 73.9631 351.602C77.1736 345.011 82.1232 338.017 88.6781 331.023C97.507 321.607 108.075 312.326 105.801 316.092C105.266 316.899 104.329 321.607 103.661 326.584C99.3798 356.31 116.503 378.235 153.023 390.206C157.838 391.82 170.814 394.645 181.784 396.663C197.569 399.353 204.124 401.236 212.551 405.137C237.433 416.973 249.472 433.383 251.345 458.402C251.88 466.472 251.747 467.145 250.543 463.11C245.326 445.893 236.095 434.594 220.578 426.523C207.869 419.933 198.505 417.377 187.135 417.377C178.573 417.377 166.132 420.202 163.323 422.757C162.654 423.295 165.33 424.102 169.075 424.64C179.108 425.985 195.696 432.442 204.792 438.495C219.909 448.448 229.54 461.092 235.961 479.385C238.369 486.245 239.172 491.76 239.573 506.152C239.975 516.106 239.573 527.943 238.904 532.382C238.102 536.82 237.834 540.721 238.102 540.99C239.306 542.201 253.753 530.902 263.786 520.948C319.302 466.338 325.054 379.984 277.431 317.975C243.854 274.26 188.472 252.201 134.294 260.675ZM85.3337 290.401C85.7351 291.612 86.1364 294.302 86.1364 296.454C86.1364 299.682 85.6013 300.355 82.7921 300.355C78.7789 300.355 78.3776 297.126 81.7219 293.36C83.8622 290.939 83.8622 290.939 81.7219 291.746C80.5179 292.15 79.4478 292.015 79.4478 291.343C79.4478 287.845 84.1298 287.173 85.3337 290.401ZM234.356 294.705C234.758 299.548 234.356 300.355 232.082 300.355C227.935 300.355 227.4 297.799 230.744 294.033L233.955 290.67L231.012 291.477C228.604 292.284 228.069 292.015 228.738 290.266C230.477 285.962 233.955 288.652 234.356 294.705ZM159.711 359.538C159.711 363.977 159.31 364.919 157.17 364.919C153.29 364.919 152.487 362.497 155.163 359.404C156.501 357.924 157.036 356.714 156.367 356.848C153.825 357.386 152.889 356.848 153.691 355.503C154.093 354.696 155.698 354.158 157.17 354.158C159.31 354.158 159.711 355.1 159.711 359.538Z" fill="#ff9a92"/>
<rect x="30.0314" y="296.856" width="34.5182" height="34.5182" fill="#ff9a92"/>
<rect x="140.49" y="341.729" width="34.5182" height="34.5182" fill="#ff9a92"/>
<rect x="30.0314" y="531.579" width="34.5182" height="34.5182" fill="#ff9a92"/>
<rect x="255.306" y="525.967" width="34.5182" height="15.3324" transform="rotate(94.7707 255.306 525.967)" fill="#ff9a92"/>
<rect x="15.8145" y="509.207" width="43.563" height="99.3666" transform="rotate(-41.4541 15.8145 509.207)" fill="#ff9a92"/>
<rect x="250.949" y="517.772" width="6.90363" height="37.97" fill="#ff9a92"/>
<path d="M1744.37 58.2911L1765.74 73.9973V66.1213C1765.74 66.0983 1765.76 66.0785 1765.76 66.0587C1765.77 66.0059 1765.78 65.9696 1765.79 65.9202C1765.81 65.8212 1765.88 65.7553 1765.93 65.6662C1765.97 65.5772 1766 65.4914 1766.08 65.4254C1766.1 65.4056 1766.09 65.3793 1766.11 65.3628L1835.5 12.3254L1744.37 58.2911Z" fill="#ff9a92"/>
<path d="M1767.63 73.5898L1768.89 72.3266L1767.63 69.9387V73.5898Z" fill="#ff9a92"/>
<path d="M1767.89 66.3878L1770.88 72.0574V72.0639L1774.52 78.8812L1835.28 14.8735L1767.89 66.3878Z" fill="#ff9a92"/>
<path d="M1799.22 89.92L1840.11 12.5415L1775.93 80.1401L1799.22 89.92Z" fill="#ff9a92"/>
<path d="M1749.42 90.7885L1744.21 95.6071C1743.54 96.2272 1743.5 97.276 1744.12 97.9422C1744.45 98.2984 1744.89 98.4732 1745.33 98.4732C1745.74 98.4732 1746.14 98.3313 1746.46 98.0345L1751.66 93.2159C1752.34 92.5926 1752.37 91.547 1751.75 90.8743C1751.13 90.2081 1750.09 90.1685 1749.42 90.7885V90.7885Z" fill="#ff9a92"/>
<path d="M1565.76 170.265C1565.55 171.156 1566.1 172.043 1566.99 172.257C1571.61 173.346 1576.44 174.154 1581.35 174.659C1581.41 174.662 1581.46 174.662 1581.52 174.662C1582.36 174.662 1583.08 174.029 1583.17 173.178C1583.26 172.274 1582.6 171.463 1581.69 171.36C1576.92 170.872 1572.23 170.087 1567.76 169.035C1566.86 168.834 1565.97 169.372 1565.76 170.265V170.265Z" fill="#ff9a92"/>
<path d="M1651.88 163.993C1652.07 163.993 1652.27 163.96 1652.47 163.887C1653.64 163.439 1654.8 162.983 1655.97 162.512C1659.2 161.156 1662.49 159.665 1665.75 158.076C1666.57 157.68 1666.91 156.687 1666.51 155.863C1666.11 155.045 1665.12 154.695 1664.3 155.101C1661.09 156.658 1657.86 158.129 1654.71 159.444C1653.58 159.903 1652.44 160.348 1651.28 160.787C1650.43 161.113 1650 162.07 1650.33 162.924C1650.58 163.59 1651.21 163.993 1651.88 163.993L1651.88 163.993Z" fill="#ff9a92"/>
<path d="M1650.79 104.982C1651.61 104.982 1652.31 104.385 1652.43 103.558C1653.1 98.7489 1653.58 93.9035 1653.88 89.1449C1653.94 88.2313 1653.24 87.4464 1652.33 87.3903C1651.43 87.354 1650.63 88.0302 1650.58 88.9404C1650.29 93.6106 1649.81 98.3732 1649.15 103.093C1649.02 103.997 1649.66 104.838 1650.57 104.966C1650.63 104.98 1650.71 104.983 1650.79 104.983L1650.79 104.982Z" fill="#ff9a92"/>
<path d="M1529.21 153.219C1529.68 153.219 1530.14 153.024 1530.48 152.638C1531.07 151.942 1530.98 150.897 1530.29 150.307C1526.8 147.342 1523.43 144.004 1520.28 140.382C1519.68 139.693 1518.63 139.627 1517.94 140.221C1517.25 140.821 1517.18 141.866 1517.78 142.553C1521.04 146.303 1524.53 149.752 1528.14 152.826C1528.45 153.09 1528.83 153.219 1529.21 153.219L1529.21 153.219Z" fill="#ff9a92"/>
<path d="M1644.17 132.921C1644.34 132.967 1644.49 132.994 1644.66 132.994C1645.37 132.994 1646.03 132.535 1646.24 131.82C1647.53 127.581 1648.69 123.201 1649.68 118.788L1649.89 117.819C1650.09 116.928 1649.52 116.044 1648.63 115.853C1647.75 115.635 1646.85 116.222 1646.66 117.119L1646.45 118.066C1645.48 122.396 1644.35 126.701 1643.08 130.859C1642.81 131.733 1643.3 132.657 1644.17 132.921L1644.17 132.921Z" fill="#ff9a92"/>
<path d="M1651.17 58.7562C1650.26 58.8683 1649.62 59.7028 1649.74 60.6131C1650.33 65.1084 1650.7 69.8677 1650.82 74.7488C1650.84 75.6426 1651.58 76.355 1652.48 76.355H1652.52C1653.44 76.3319 1654.16 75.57 1654.14 74.6564C1654 69.6597 1653.63 64.7879 1653.02 60.1779C1652.9 59.2709 1652.05 58.6443 1651.17 58.7564V58.7562Z" fill="#ff9a92"/>
<path d="M1640.51 143.323C1639.66 142.997 1638.7 143.403 1638.36 144.24C1636.6 148.633 1634.63 152.977 1632.5 157.159C1632.08 157.977 1632.4 158.977 1633.22 159.386C1633.46 159.508 1633.71 159.564 1633.97 159.564C1634.58 159.564 1635.16 159.237 1635.44 158.667C1637.62 154.392 1639.63 149.953 1641.43 145.481C1641.77 144.63 1641.36 143.667 1640.51 143.324V143.323Z" fill="#ff9a92"/>
<path d="M1639.87 166.467C1639.61 165.586 1638.69 165.081 1637.81 165.345C1633.27 166.684 1628.63 167.845 1624.01 168.802C1623.12 168.986 1622.54 169.867 1622.73 170.761C1622.86 171.374 1623.31 171.843 1623.87 172.008C1621.83 175.118 1619.67 178.188 1617.41 181.157C1616.85 181.886 1616.99 182.921 1617.72 183.472C1618.02 183.703 1618.38 183.808 1618.72 183.808C1619.22 183.808 1619.71 183.587 1620.04 183.155C1622.96 179.316 1625.74 175.306 1628.29 171.249C1631.79 170.444 1635.29 169.534 1638.74 168.514C1639.62 168.264 1640.12 167.347 1639.87 166.466L1639.87 166.467Z" fill="#ff9a92"/>
<path d="M1627.2 10.3327L1626.37 9.7687C1625.6 9.26738 1624.58 9.47516 1624.07 10.237C1623.58 11.0022 1623.78 12.0279 1624.55 12.5292L1625.32 13.0503C1628.81 15.425 1632.01 18.3537 1634.82 21.7638C1635.14 22.1596 1635.61 22.3641 1636.09 22.3641C1636.46 22.3641 1636.83 22.2453 1637.15 21.9914C1637.85 21.4109 1637.95 20.3654 1637.37 19.6596C1634.36 16.0053 1630.93 12.8654 1627.2 10.3323L1627.2 10.3327Z" fill="#ff9a92"/>
<path d="M1526.09 250.797C1526.37 251.404 1526.97 251.754 1527.59 251.754C1527.82 251.754 1528.06 251.708 1528.28 251.602C1532.68 249.561 1537 247.456 1541.25 245.286C1542.06 244.871 1542.38 243.871 1541.97 243.06C1541.55 242.252 1540.56 241.922 1539.74 242.341C1535.53 244.491 1531.25 246.579 1526.89 248.601C1526.07 248.98 1525.71 249.963 1526.09 250.797L1526.09 250.797Z" fill="#ff9a92"/>
<path d="M1735.97 105.405C1735.36 104.729 1734.31 104.666 1733.64 105.286C1730.09 108.482 1726.52 111.652 1722.9 114.775C1722.21 115.372 1722.14 116.421 1722.73 117.107C1723.06 117.486 1723.52 117.677 1723.99 117.677C1724.37 117.677 1724.75 117.549 1725.07 117.275C1728.7 114.142 1732.29 110.952 1735.85 107.736C1736.53 107.13 1736.59 106.084 1735.97 105.405L1735.97 105.405Z" fill="#ff9a92"/>
<path d="M1647.01 46.7408C1647.22 47.473 1647.88 47.9611 1648.61 47.9611C1648.75 47.9611 1648.9 47.9413 1649.05 47.905C1649.93 47.6642 1650.45 46.7572 1650.21 45.8734C1648.87 40.9261 1647.18 36.3021 1645.2 32.1303C1644.8 31.3024 1643.81 30.9561 1642.99 31.3453C1642.16 31.7378 1641.81 32.7272 1642.21 33.5518C1644.11 37.5459 1645.72 41.9819 1647.01 46.741L1647.01 46.7408Z" fill="#ff9a92"/>
<path d="M1528.82 16.607C1524.53 19.1697 1520.51 21.9962 1516.87 24.9909C1516.17 25.5714 1516.07 26.6169 1516.65 27.3227C1516.98 27.7185 1517.45 27.923 1517.93 27.923C1518.3 27.923 1518.67 27.8042 1518.98 27.5503C1522.5 24.6578 1526.38 21.9269 1530.52 19.4401C1531.31 18.9717 1531.56 17.9592 1531.09 17.1742C1530.62 16.3926 1529.6 16.1353 1528.82 16.6069L1528.82 16.607Z" fill="#ff9a92"/>
<path d="M1598.3 3.74715C1603.17 4.29465 1607.78 5.26433 1612 6.62648C1612.17 6.68255 1612.34 6.70564 1612.51 6.70564C1613.2 6.70564 1613.85 6.26039 1614.08 5.56115C1614.36 4.69048 1613.88 3.76036 1613.01 3.48005C1608.57 2.04866 1603.75 1.02956 1598.66 0.458959C1597.79 0.346824 1596.94 1.00645 1596.83 1.92007C1596.73 2.82705 1597.39 3.64833 1598.3 3.74728L1598.3 3.74715Z" fill="#ff9a92"/>
<path d="M1599.54 205.094C1599.95 205.094 1600.36 204.949 1600.68 204.639C1604.22 201.288 1607.63 197.812 1610.8 194.299C1611.41 193.623 1611.35 192.577 1610.68 191.964C1610 191.351 1608.95 191.397 1608.33 192.083C1605.22 195.526 1601.88 198.94 1598.4 202.234C1597.74 202.864 1597.71 203.906 1598.34 204.569C1598.67 204.922 1599.11 205.094 1599.54 205.094L1599.54 205.094Z" fill="#ff9a92"/>
<path d="M1497.92 105.886C1498.09 105.886 1498.26 105.863 1498.43 105.807C1499.3 105.523 1499.78 104.593 1499.5 103.723C1498.02 99.1679 1496.89 94.5633 1496.14 90.0284C1495.98 89.1313 1495.12 88.5245 1494.24 88.6663C1493.33 88.818 1492.72 89.6689 1492.87 90.5726C1493.66 95.2692 1494.82 100.038 1496.35 104.748C1496.57 105.441 1497.22 105.886 1497.92 105.886L1497.92 105.886Z" fill="#ff9a92"/>
<path d="M1714.26 124.199C1713.69 123.487 1712.65 123.382 1711.94 123.949C1708.03 127.122 1704.34 129.981 1700.65 132.709C1699.92 133.253 1699.76 134.289 1700.31 135.021C1700.63 135.459 1701.13 135.694 1701.64 135.694C1701.98 135.694 1702.33 135.595 1702.62 135.374C1706.34 132.623 1710.07 129.727 1714.03 126.531C1714.73 125.947 1714.84 124.905 1714.26 124.199L1714.26 124.199Z" fill="#ff9a92"/>
<path d="M1493.35 77.6515H1493.37C1494.28 77.6515 1495.02 76.9292 1495.03 76.0156C1495.09 71.2036 1495.62 66.5304 1496.6 62.1239C1496.8 61.2334 1496.24 60.3461 1495.35 60.1416C1494.47 59.9536 1493.58 60.5011 1493.37 61.395C1492.33 66.0289 1491.77 70.9401 1491.72 75.9824C1491.71 76.896 1492.44 77.6414 1493.35 77.6513L1493.35 77.6515Z" fill="#ff9a92"/>
<path d="M1676.26 150.677C1676.56 151.208 1677.12 151.505 1677.69 151.505C1677.98 151.505 1678.26 151.433 1678.52 151.284C1682.59 148.929 1686.73 146.367 1690.81 143.672C1691.57 143.171 1691.78 142.142 1691.27 141.38C1690.77 140.625 1689.75 140.417 1688.98 140.912C1684.96 143.573 1680.88 146.103 1676.87 148.425C1676.08 148.877 1675.8 149.889 1676.26 150.677L1676.26 150.677Z" fill="#ff9a92"/>
<path d="M1508.77 35.0548C1508.07 34.4677 1507.03 34.5568 1506.44 35.2626C1503.37 38.9169 1500.77 42.779 1498.72 46.7269L1498.32 47.5019C1497.9 48.3199 1498.23 49.3192 1499.04 49.7282C1499.28 49.8502 1499.54 49.9063 1499.79 49.9063C1500.39 49.9063 1500.97 49.5798 1501.26 49.0092L1501.65 48.2605C1503.59 44.5204 1506.06 40.866 1508.98 37.3864C1509.56 36.6905 1509.47 35.645 1508.77 35.0546L1508.77 35.0548Z" fill="#ff9a92"/>
<path d="M1487.21 264.982C1482.75 266.631 1478.25 268.241 1473.72 269.814C1472.85 270.111 1472.4 271.061 1472.7 271.922C1472.93 272.608 1473.58 273.027 1474.26 273.027C1474.44 273.027 1474.63 272.997 1474.81 272.938C1479.36 271.354 1483.88 269.732 1488.36 268.076C1489.21 267.76 1489.66 266.803 1489.34 265.952C1489.01 265.105 1488.06 264.669 1487.21 264.983L1487.21 264.982Z" fill="#ff9a92"/>
<path d="M1508.98 130.946C1509.3 131.434 1509.83 131.688 1510.37 131.688C1510.68 131.688 1510.99 131.599 1511.28 131.417C1512.04 130.916 1512.25 129.89 1511.75 129.125C1509.16 125.2 1506.82 121.064 1504.77 116.823C1504.38 116.002 1503.39 115.656 1502.57 116.051C1501.74 116.447 1501.4 117.44 1501.79 118.265C1503.9 122.635 1506.32 126.896 1508.98 130.946L1508.98 130.946Z" fill="#ff9a92"/>
<path d="M1539.42 159.103C1538.95 159.885 1539.2 160.901 1539.99 161.372C1544.1 163.856 1548.5 166.039 1553.07 167.87C1553.27 167.949 1553.48 167.982 1553.69 167.982C1554.34 167.982 1554.97 167.589 1555.22 166.943C1555.56 166.092 1555.15 165.132 1554.3 164.793C1549.9 163.035 1545.66 160.93 1541.7 158.536C1540.91 158.068 1539.9 158.318 1539.42 159.103L1539.42 159.103Z" fill="#ff9a92"/>
<path d="M1501.2 263.057C1501.4 263.057 1501.6 263.021 1501.8 262.945C1506.3 261.171 1510.74 259.347 1515.13 257.48C1515.97 257.12 1516.36 256.148 1516 255.307C1515.65 254.465 1514.66 254.086 1513.83 254.432C1509.47 256.296 1505.06 258.107 1500.59 259.871C1499.74 260.201 1499.33 261.167 1499.66 262.018C1499.91 262.665 1500.54 263.057 1501.2 263.057H1501.2Z" fill="#ff9a92"/>
<path d="M1595.85 175.281H1595.88C1600.62 175.215 1605.5 174.902 1610.36 174.351C1611.27 174.252 1611.92 173.427 1611.82 172.517C1611.72 171.613 1610.87 170.934 1609.99 171.059C1605.23 171.597 1600.47 171.91 1595.83 171.973C1594.92 171.983 1594.18 172.735 1594.2 173.645C1594.21 174.552 1594.95 175.281 1595.85 175.281L1595.85 175.281Z" fill="#ff9a92"/>
<path d="M1568.25 3.50265C1568.39 4.3074 1569.08 4.8681 1569.87 4.8681C1569.97 4.8681 1570.07 4.8648 1570.16 4.84501C1574.88 4.02377 1579.6 3.5027 1584.21 3.30479C1585.13 3.26851 1585.84 2.49014 1585.79 1.58312C1585.75 0.66626 1584.99 0.00987864 1584.07 0C1579.32 0.204488 1574.45 0.738791 1569.59 1.58971C1568.69 1.74472 1568.09 2.60551 1568.25 3.50261L1568.25 3.50265Z" fill="#ff9a92"/>
<path d="M1552.33 235.584C1551.54 236.039 1551.26 237.048 1551.71 237.843C1552.02 238.377 1552.58 238.681 1553.16 238.681C1553.44 238.681 1553.71 238.608 1553.97 238.466C1558.23 236.045 1562.4 233.549 1566.35 231.049C1567.13 230.557 1567.36 229.535 1566.87 228.766C1566.38 228.001 1565.35 227.77 1564.59 228.255C1560.67 230.722 1556.56 233.196 1552.33 235.584H1552.33Z" fill="#ff9a92"/>
<path d="M1432.84 283.136C1428.28 284.541 1423.7 285.936 1419.13 287.322C1418.25 287.585 1417.75 288.509 1418.02 289.386C1418.24 290.099 1418.9 290.56 1419.61 290.56C1419.76 290.56 1419.92 290.541 1420.08 290.488C1424.67 289.103 1429.25 287.707 1433.82 286.293C1434.69 286.022 1435.19 285.095 1434.91 284.221C1434.65 283.354 1433.71 282.859 1432.84 283.136L1432.84 283.136Z" fill="#ff9a92"/>
<path d="M1555.43 4.94657C1550.77 6.34495 1546.17 8.03031 1541.77 9.95319C1540.93 10.3226 1540.55 11.2955 1540.91 12.1332C1541.18 12.7566 1541.79 13.126 1542.43 13.126C1542.65 13.126 1542.87 13.0831 1543.09 12.9941C1547.38 11.1207 1551.85 9.48488 1556.39 8.11943C1557.26 7.85558 1557.76 6.93214 1557.49 6.05809C1557.23 5.17745 1556.3 4.66301 1555.43 4.94662L1555.43 4.94657Z" fill="#ff9a92"/>
<path d="M1460.14 274.431C1455.62 275.925 1451.09 277.399 1446.52 278.85C1445.65 279.131 1445.17 280.061 1445.44 280.932C1445.66 281.631 1446.32 282.079 1447.02 282.079C1447.18 282.079 1447.35 282.056 1447.52 282.004C1452.1 280.542 1456.65 279.071 1461.18 277.567C1462.05 277.281 1462.52 276.344 1462.23 275.476C1461.95 274.616 1461.01 274.134 1460.14 274.431L1460.14 274.431Z" fill="#ff9a92"/>
<path d="M1576.4 220.284C1575.66 220.815 1575.49 221.851 1576.02 222.593C1576.34 223.042 1576.85 223.282 1577.37 223.282C1577.7 223.282 1578.04 223.183 1578.33 222.976C1582.3 220.139 1586.16 217.184 1589.81 214.196C1590.52 213.619 1590.62 212.574 1590.04 211.871C1589.46 211.162 1588.42 211.063 1587.71 211.64C1584.12 214.572 1580.31 217.485 1576.4 220.284L1576.4 220.284Z" fill="#ff9a92"/>
<path d="M1398.58 296.856C1398.74 296.856 1398.9 296.837 1399.06 296.791L1405.86 294.759C1406.73 294.495 1407.23 293.578 1406.97 292.698C1406.71 291.824 1405.79 291.299 1404.91 291.593L1398.11 293.618C1397.23 293.882 1396.74 294.805 1397 295.679C1397.21 296.398 1397.87 296.856 1398.58 296.856H1398.58Z" fill="#ff9a92"/>
<path d="M36.0376 746.028C32.1038 746.028 28.3338 745.513 24.7278 744.483C21.1218 743.406 18.2182 742.024 16.0171 740.338L19.8807 731.768C21.9882 733.267 24.4702 734.508 27.327 735.491C30.2305 736.428 33.1575 736.896 36.1079 736.896C38.3558 736.896 40.1588 736.685 41.5169 736.264C42.9219 735.796 43.9522 735.163 44.6078 734.367C45.2635 733.571 45.5913 732.658 45.5913 731.628C45.5913 730.316 45.0762 729.286 44.0459 728.537C43.0156 727.741 41.6574 727.108 39.9715 726.64C38.2856 726.125 36.4123 725.657 34.3517 725.235C32.3379 724.767 30.3008 724.205 28.2402 723.549C26.2264 722.893 24.3766 722.05 22.6906 721.02C21.0047 719.99 19.6232 718.632 18.546 716.946C17.5157 715.26 17.0006 713.106 17.0006 710.483C17.0006 707.673 17.7499 705.121 19.2485 702.826C20.7939 700.484 23.0887 698.635 26.1328 697.277C29.2236 695.872 33.0873 695.169 37.7236 695.169C40.8145 695.169 43.8585 695.544 46.8558 696.293C49.853 696.996 52.499 698.073 54.7937 699.524L51.2813 708.165C48.9866 706.854 46.6918 705.894 44.3971 705.285C42.1023 704.629 39.8544 704.301 37.6533 704.301C35.4522 704.301 33.6492 704.559 32.2443 705.074C30.8393 705.589 29.8325 706.268 29.2236 707.111C28.6148 707.907 28.3104 708.844 28.3104 709.921C28.3104 711.186 28.8256 712.216 29.8559 713.012C30.8862 713.761 32.2443 714.37 33.9302 714.838C35.6162 715.307 37.466 715.775 39.4798 716.243C41.5404 716.712 43.5775 717.25 45.5913 717.859C47.6519 718.468 49.5252 719.287 51.2111 720.318C52.897 721.348 54.2552 722.706 55.2855 724.392C56.3626 726.078 56.9011 728.209 56.9011 730.785C56.9011 733.548 56.1284 736.077 54.583 738.371C53.0375 740.666 50.7194 742.516 47.6285 743.921C44.5844 745.326 40.7208 746.028 36.0376 746.028ZM135.292 745.185V705.285H119.557V696.012H162.408V705.285H146.672V745.185H135.292ZM220.714 745.185L242.631 696.012H253.871L275.858 745.185H263.916L245.933 701.772H250.429L232.375 745.185H220.714ZM231.672 734.648L234.693 726.008H259.982L263.073 734.648H231.672ZM351.28 745.185V725.095L353.879 731.979L332.243 696.012H344.325L360.904 723.619H353.949L370.598 696.012H381.767L360.131 731.979L362.66 725.095V745.185H351.28ZM552.538 746.028C548.651 746.028 545.045 745.396 541.72 744.132C538.441 742.867 535.585 741.088 533.149 738.793C530.761 736.498 528.888 733.805 527.53 730.714C526.218 727.623 525.563 724.252 525.563 720.599C525.563 716.946 526.218 713.574 527.53 710.483C528.888 707.392 530.784 704.699 533.22 702.405C535.655 700.11 538.512 698.33 541.79 697.066C545.068 695.801 548.627 695.169 552.467 695.169C556.354 695.169 559.914 695.801 563.145 697.066C566.423 698.33 569.257 700.11 571.645 702.405C574.08 704.699 575.977 707.392 577.335 710.483C578.693 713.527 579.372 716.899 579.372 720.599C579.372 724.252 578.693 727.647 577.335 730.785C575.977 733.875 574.08 736.568 571.645 738.863C569.257 741.111 566.423 742.867 563.145 744.132C559.914 745.396 556.378 746.028 552.538 746.028ZM552.467 736.334C554.668 736.334 556.682 735.959 558.509 735.21C560.382 734.461 562.021 733.384 563.426 731.979C564.831 730.574 565.908 728.911 566.657 726.991C567.454 725.071 567.852 722.94 567.852 720.599C567.852 718.257 567.454 716.126 566.657 714.206C565.908 712.286 564.831 710.624 563.426 709.219C562.068 707.814 560.452 706.737 558.579 705.987C556.706 705.238 554.668 704.863 552.467 704.863C550.266 704.863 548.229 705.238 546.356 705.987C544.529 706.737 542.914 707.814 541.509 709.219C540.104 710.624 539.003 712.286 538.207 714.206C537.458 716.126 537.083 718.257 537.083 720.599C537.083 722.893 537.458 725.024 538.207 726.991C539.003 728.911 540.08 730.574 541.439 731.979C542.843 733.384 544.483 734.461 546.356 735.21C548.229 735.959 550.266 736.334 552.467 736.334ZM649.04 745.185V696.012H658.453L687.465 731.417H682.899V696.012H694.139V745.185H684.796L655.714 709.781H660.28V745.185H649.04ZM777.355 715.822H801.029V724.673H777.355V715.822ZM778.198 736.053H804.963V745.185H766.888V696.012H804.049V705.144H778.198V736.053ZM972.299 746.028C968.365 746.028 964.595 745.513 960.989 744.483C957.383 743.406 954.48 742.024 952.279 740.338L956.142 731.768C958.25 733.267 960.732 734.508 963.588 735.491C966.492 736.428 969.419 736.896 972.369 736.896C974.617 736.896 976.42 736.685 977.778 736.264C979.183 735.796 980.214 735.163 980.869 734.367C981.525 733.571 981.853 732.658 981.853 731.628C981.853 730.316 981.338 729.286 980.307 728.537C979.277 727.741 977.919 727.108 976.233 726.64C974.547 726.125 972.674 725.657 970.613 725.235C968.599 724.767 966.562 724.205 964.502 723.549C962.488 722.893 960.638 722.05 958.952 721.02C957.266 719.99 955.885 718.632 954.808 716.946C953.777 715.26 953.262 713.106 953.262 710.483C953.262 707.673 954.011 705.121 955.51 702.826C957.055 700.484 959.35 698.635 962.394 697.277C965.485 695.872 969.349 695.169 973.985 695.169C977.076 695.169 980.12 695.544 983.117 696.293C986.115 696.996 988.761 698.073 991.055 699.524L987.543 708.165C985.248 706.854 982.953 705.894 980.659 705.285C978.364 704.629 976.116 704.301 973.915 704.301C971.714 704.301 969.911 704.559 968.506 705.074C967.101 705.589 966.094 706.268 965.485 707.111C964.876 707.907 964.572 708.844 964.572 709.921C964.572 711.186 965.087 712.216 966.117 713.012C967.148 713.761 968.506 714.37 970.192 714.838C971.878 715.307 973.728 715.775 975.741 716.243C977.802 716.712 979.839 717.25 981.853 717.859C983.913 718.468 985.787 719.287 987.473 720.318C989.159 721.348 990.517 722.706 991.547 724.392C992.624 726.078 993.163 728.209 993.163 730.785C993.163 733.548 992.39 736.077 990.845 738.371C989.299 740.666 986.981 742.516 983.89 743.921C980.846 745.326 976.982 746.028 972.299 746.028ZM1071.55 745.185V705.285H1055.82V696.012H1098.67V705.285H1082.93V745.185H1071.55ZM1176.37 715.822H1200.05V724.673H1176.37V715.822ZM1177.22 736.053H1203.98V745.185H1165.91V696.012H1203.07V705.144H1177.22V736.053ZM1274.15 745.185V696.012H1295.44C1299.84 696.012 1303.63 696.738 1306.82 698.19C1310 699.595 1312.46 701.632 1314.19 704.301C1315.93 706.971 1316.79 710.155 1316.79 713.855C1316.79 717.508 1315.93 720.669 1314.19 723.338C1312.46 726.008 1310 728.068 1306.82 729.52C1303.63 730.925 1299.84 731.628 1295.44 731.628H1280.47L1285.53 726.499V745.185H1274.15ZM1285.53 727.764L1280.47 722.355H1294.8C1298.32 722.355 1300.94 721.606 1302.67 720.107C1304.41 718.608 1305.27 716.524 1305.27 713.855C1305.27 711.139 1304.41 709.031 1302.67 707.533C1300.94 706.034 1298.32 705.285 1294.8 705.285H1280.47L1285.53 699.876V727.764ZM1461.26 745.185L1483.18 696.012H1494.42L1516.41 745.185H1504.47L1486.48 701.772H1490.98L1472.93 745.185H1461.26ZM1472.22 734.648L1475.24 726.008H1500.53L1503.62 734.648H1472.22ZM1616.34 696.012H1627.73V745.185H1616.34V696.012ZM1594.01 745.185H1582.63V696.012H1594.01V745.185ZM1617.19 725.024H1593.16V715.4H1617.19V725.024ZM1710.94 715.822H1734.61V724.673H1710.94V715.822ZM1711.78 736.053H1738.55V745.185H1700.47V696.012H1737.64V705.144H1711.78V736.053ZM1802.26 745.185L1824.17 696.012H1835.41L1857.4 745.185H1845.46L1827.47 701.772H1831.97L1813.92 745.185H1802.26ZM1813.21 734.648L1816.24 726.008H1841.52L1844.62 734.648H1813.21ZM1923.62 745.185V696.012H1945.96C1951.29 696.012 1956 697.042 1960.08 699.103C1964.15 701.117 1967.33 703.95 1969.63 707.603C1971.92 711.256 1973.07 715.588 1973.07 720.599C1973.07 725.563 1971.92 729.895 1969.63 733.594C1967.33 737.247 1964.15 740.104 1960.08 742.165C1956 744.178 1951.29 745.185 1945.96 745.185H1923.62ZM1935 735.842H1945.39C1948.67 735.842 1951.51 735.234 1953.89 734.016C1956.33 732.752 1958.2 730.972 1959.51 728.677C1960.87 726.382 1961.55 723.69 1961.55 720.599C1961.55 717.461 1960.87 714.768 1959.51 712.52C1958.2 710.225 1956.33 708.469 1953.89 707.252C1951.51 705.987 1948.67 705.355 1945.39 705.355H1935V735.842Z" fill="#ff9a92"/>
<rect x="1453.06" y="428.936" width="66.5016" height="166.254" fill="#2B2B2B"/>
<path d="M1486.31 372.409L1552.54 482.137H1420.08L1486.31 372.409Z" fill="#2B2B2B"/>
<path d="M1812.6 239.678V227.736L1843.31 198.734C1845.73 196.535 1847.52 194.564 1848.65 192.82C1849.79 191.076 1850.55 189.484 1850.93 188.043C1851.38 186.602 1851.61 185.275 1851.61 184.062C1851.61 180.878 1850.51 178.451 1848.31 176.783C1846.19 175.039 1843.04 174.167 1838.87 174.167C1835.54 174.167 1832.43 174.812 1829.55 176.101C1826.74 177.39 1824.35 179.399 1822.38 182.129L1808.96 173.485C1811.99 168.936 1816.24 165.334 1821.7 162.68C1827.16 160.027 1833.45 158.7 1840.58 158.7C1846.49 158.7 1851.65 159.685 1856.05 161.657C1860.52 163.552 1863.97 166.244 1866.39 169.732C1868.9 173.22 1870.15 177.39 1870.15 182.243C1870.15 184.821 1869.81 187.398 1869.12 189.976C1868.52 192.479 1867.23 195.132 1865.26 197.938C1863.36 200.743 1860.56 203.89 1856.84 207.378L1831.36 231.376L1827.84 224.665H1872.76V239.678H1812.6ZM1907.86 240.588C1904.83 240.588 1902.21 239.564 1900.02 237.517C1897.89 235.394 1896.83 232.703 1896.83 229.442C1896.83 226.182 1897.89 223.566 1900.02 221.595C1902.21 219.547 1904.83 218.524 1907.86 218.524C1910.97 218.524 1913.59 219.547 1915.71 221.595C1917.83 223.566 1918.9 226.182 1918.9 229.442C1918.9 232.703 1917.83 235.394 1915.71 237.517C1913.59 239.564 1910.97 240.588 1907.86 240.588ZM1975.77 241.043C1969.24 241.043 1963.41 239.451 1958.25 236.266C1953.09 233.006 1949.04 228.305 1946.08 222.163C1943.12 216.022 1941.65 208.591 1941.65 199.871C1941.65 191.152 1943.12 183.721 1946.08 177.579C1949.04 171.438 1953.09 166.775 1958.25 163.59C1963.41 160.33 1969.24 158.7 1975.77 158.7C1982.36 158.7 1988.2 160.33 1993.28 163.59C1998.44 166.775 2002.49 171.438 2005.45 177.579C2008.41 183.721 2009.89 191.152 2009.89 199.871C2009.89 208.591 2008.41 216.022 2005.45 222.163C2002.49 228.305 1998.44 233.006 1993.28 236.266C1988.2 239.451 1982.36 241.043 1975.77 241.043ZM1975.77 225.461C1978.87 225.461 1981.57 224.59 1983.84 222.846C1986.19 221.102 1988.01 218.334 1989.3 214.543C1990.66 210.752 1991.35 205.861 1991.35 199.871C1991.35 193.881 1990.66 188.991 1989.3 185.2C1988.01 181.408 1986.19 178.641 1983.84 176.897C1981.57 175.153 1978.87 174.281 1975.77 174.281C1972.73 174.281 1970.04 175.153 1967.69 176.897C1965.42 178.641 1963.6 181.408 1962.23 185.2C1960.94 188.991 1960.3 193.881 1960.3 199.871C1960.3 205.861 1960.94 210.752 1962.23 214.543C1963.6 218.334 1965.42 221.102 1967.69 222.846C1970.04 224.59 1972.73 225.461 1975.77 225.461Z" fill="#ff9a92"/>
<rect x="196.181" y="548.639" width="39.901" height="46.5512" fill="#2B2B2B"/>
</svg>
