<svg width="643" height="179" viewBox="0 0 643 179" fill="none" xmlns="http://www.w3.org/2000/svg">
<path d="M81.6491 100.764C81.6491 94.1334 82.8828 88.312 85.3501 83.3002C87.8946 78.2883 91.3258 74.4331 95.6436 71.7344C99.9615 69.0358 104.781 67.6864 110.101 67.6864C114.65 67.6864 118.621 68.6117 122.013 70.4622C125.483 72.3127 128.143 74.7415 129.994 77.7486V68.6117H149.771V133.148H129.994V124.011C128.066 127.019 125.367 129.447 121.898 131.298C118.505 133.148 114.534 134.074 109.985 134.074C104.742 134.074 99.9615 132.724 95.6436 130.026C91.3258 127.25 87.8946 123.356 85.3501 118.344C82.8828 113.255 81.6491 107.395 81.6491 100.764ZM129.994 100.88C129.994 95.9453 128.606 92.0515 125.83 89.1987C123.131 86.3458 119.816 84.9194 115.884 84.9194C111.951 84.9194 108.597 86.3458 105.821 89.1987C103.123 91.9744 101.773 95.8297 101.773 100.764C101.773 105.699 103.123 109.631 105.821 112.561C108.597 115.414 111.951 116.841 115.884 116.841C119.816 116.841 123.131 115.414 125.83 112.561C128.606 109.709 129.994 105.815 129.994 100.88Z" fill="white"/>
<path d="M203.518 133.148L183.857 106.085V133.148H164.079V47.5621H183.857V94.8659L203.403 68.6117H227.806L200.974 100.996L228.038 133.148H203.518Z" fill="white"/>
<path d="M261.828 134.074C256.2 134.074 251.188 133.11 246.793 131.182C242.398 129.255 238.928 126.633 236.384 123.318C233.839 119.925 232.413 116.147 232.105 111.983H251.651C251.882 114.219 252.923 116.031 254.773 117.419C256.624 118.807 258.898 119.501 261.597 119.501C264.064 119.501 265.954 119.038 267.264 118.113C268.652 117.111 269.346 115.838 269.346 114.296C269.346 112.446 268.382 111.096 266.455 110.248C264.527 109.323 261.404 108.321 257.087 107.241C252.46 106.162 248.605 105.044 245.521 103.887C242.437 102.653 239.776 100.764 237.54 98.2199C235.304 95.5984 234.186 92.0901 234.186 87.6951C234.186 83.9941 235.189 80.64 237.193 77.633C239.275 74.5488 242.282 72.12 246.215 70.3466C250.224 68.5732 254.966 67.6864 260.441 67.6864C268.537 67.6864 274.898 69.6912 279.524 73.7006C284.227 77.7101 286.926 83.0303 287.62 89.6613H269.346C269.038 87.4253 268.035 85.6519 266.339 84.3411C264.72 83.0303 262.561 82.3749 259.862 82.3749C257.549 82.3749 255.776 82.8375 254.542 83.7628C253.308 84.6109 252.692 85.8061 252.692 87.3482C252.692 89.1987 253.655 90.5866 255.583 91.5118C257.588 92.4371 260.672 93.3623 264.836 94.2876C269.616 95.5213 273.51 96.7549 276.517 97.9886C279.524 99.1452 282.146 101.073 284.382 103.771C286.695 106.393 287.89 109.94 287.967 114.412C287.967 118.19 286.887 121.583 284.729 124.59C282.647 127.52 279.601 129.833 275.592 131.529C271.659 133.225 267.072 134.074 261.828 134.074Z" fill="white"/>
<path d="M339.737 67.9178C347.139 67.9178 353.076 70.3851 357.548 75.3198C362.02 80.1774 364.256 86.8855 364.256 95.4442V133.148H344.595L346.859 107.326L344.595 98.1043C344.595 93.7864 343.477 90.4323 341.241 88.0421C339.005 85.6519 335.783 83.3002 332.004 83.3002C328.226 83.3002 325.434 85.6519 323.198 88.0421C320.962 90.4323 319.844 93.7864 319.844 98.1043L316.778 107.326L319.844 133.148H300.067V47.5621H319.844V77.286C321.849 74.4331 324.586 72.1585 328.056 70.4622C331.525 68.7659 335.419 67.9178 339.737 67.9178Z" fill="white"/>
<path d="M374.067 100.764C374.067 94.1334 375.301 88.312 377.768 83.3002C380.313 78.2883 383.744 74.4331 388.062 71.7344C392.38 69.0358 397.199 67.6864 402.519 67.6864C407.068 67.6864 411.039 68.6117 414.432 70.4622C417.901 72.3127 420.562 74.7415 422.412 77.7486V68.6117H442.189V133.148H422.412V124.011C420.484 127.019 417.786 129.447 414.316 131.298C410.923 133.148 406.953 134.074 402.403 134.074C397.16 134.074 392.38 132.724 388.062 130.026C383.744 127.25 380.313 123.356 377.768 118.344C375.301 113.255 374.067 107.395 374.067 100.764ZM422.412 100.88C422.412 95.9453 421.024 92.0515 418.248 89.1987C415.55 86.3458 412.234 84.9194 408.302 84.9194C404.37 84.9194 401.015 86.3458 398.24 89.1987C395.541 91.9744 394.192 95.8297 394.192 100.764C394.192 105.699 395.541 109.631 398.24 112.561C401.015 115.414 404.37 116.841 408.302 116.841C412.234 116.841 415.55 115.414 418.248 112.561C421.024 109.709 422.412 105.815 422.412 100.88Z" fill="white"/>
<path d="M478.347 117.303C480.968 115.222 482.163 114.258 481.932 114.412C489.488 108.166 495.425 103.039 499.743 99.0295C504.138 95.0201 507.839 90.8179 510.846 86.4229C513.853 82.0279 515.357 77.7486 515.357 73.585C515.357 70.4237 514.624 67.9563 513.159 66.1829C511.694 64.4095 509.497 63.5228 506.567 63.5228C503.637 63.5228 501.324 64.6408 499.628 66.8768C498.008 69.0358 497.199 72.12 497.199 76.1294H478.115C478.27 69.5755 479.657 64.1011 482.279 59.7061C484.978 55.3111 488.486 52.0727 492.804 49.9909C497.199 47.9091 502.056 46.8682 507.377 46.8682C516.552 46.8682 523.453 49.2199 528.079 53.9232C532.783 58.6266 535.134 64.7565 535.134 72.3127C535.134 80.5629 532.32 88.2349 526.691 95.3285C521.063 102.345 513.892 109.207 505.179 115.915H536.407V131.992H478.347V117.303Z" fill="white"/>
<path d="M556.333 134.074C552.863 134.074 550.01 133.071 547.774 131.067C545.615 128.985 544.536 126.44 544.536 123.433C544.536 120.349 545.615 117.766 547.774 115.684C550.01 113.602 552.863 112.561 556.333 112.561C559.726 112.561 562.501 113.602 564.66 115.684C566.896 117.766 568.014 120.349 568.014 123.433C568.014 126.44 566.896 128.985 564.66 131.067C562.501 133.071 559.726 134.074 556.333 134.074Z" fill="white"/>
<path d="M577.756 89.777C577.756 76.5149 580.3 66.0672 585.389 58.4339C590.555 50.8005 598.844 46.9838 610.255 46.9838C621.667 46.9838 629.917 50.8005 635.006 58.4339C640.172 66.0672 642.755 76.5149 642.755 89.777C642.755 103.193 640.172 113.718 635.006 121.351C629.917 128.985 621.667 132.801 610.255 132.801C598.844 132.801 590.555 128.985 585.389 121.351C580.3 113.718 577.756 103.193 577.756 89.777ZM623.325 89.777C623.325 81.9894 622.476 76.0138 620.78 71.8501C619.084 67.6093 615.576 65.489 610.255 65.489C604.935 65.489 601.427 67.6093 599.731 71.8501C598.034 76.0138 597.186 81.9894 597.186 89.777C597.186 95.0201 597.495 99.3765 598.111 102.846C598.728 106.239 599.962 109.015 601.812 111.174C603.74 113.255 606.554 114.296 610.255 114.296C613.956 114.296 616.732 113.255 618.583 111.174C620.51 109.015 621.783 106.239 622.399 102.846C623.016 99.3765 623.325 95.0201 623.325 89.777Z" fill="white"/>
<path fill-rule="evenodd" clip-rule="evenodd" d="M30.4178 51.2061C38.9764 51.2061 46.4556 52.9024 52.8553 56.295C59.255 59.6876 64.1897 64.4681 67.6594 70.6364C71.2062 76.7277 72.9796 83.7828 72.9796 91.8017C72.9796 99.7435 71.2062 106.799 67.6594 112.967C64.1897 119.135 59.2164 123.916 52.7396 127.308C46.34 130.701 38.8993 132.397 30.4178 132.397H0V51.2061H30.4178ZM8.25015 68.6232H19.7774V68.092H29.1456C31.3267 68.092 33.3669 68.269 35.266 68.6232H57.5972V124.139H8.25015V68.6232Z" fill="white"/>
<path d="M29.9981 58.228C21.4819 59.58 13.7426 64.177 8.4835 71.0274C-2.96105 85.9301 -0.451023 106.962 14.161 118.8C15.8642 120.182 19.8384 122.646 22.0795 123.728C26.1434 125.651 26.3525 125.681 35.4365 125.681C43.1459 125.681 43.7435 125.651 43.7435 125.14C43.7435 123.127 41.9207 120.423 39.7991 119.341C37.6178 118.229 36.2134 118.259 32.2392 119.641C30.267 120.333 28.2948 120.873 27.8765 120.873C26.741 120.873 25.6055 119.852 24.7389 117.959C24.0816 116.577 23.7529 116.216 22.6473 115.766C21.3026 115.165 21.0038 114.594 21.7209 113.903C22.0496 113.602 21.96 113.452 21.2129 113.061C20.705 112.791 20.3165 112.461 20.3464 112.28C20.3763 112.13 20.4659 111.649 20.5854 111.229C20.8843 110.027 19.5695 108.645 17.8662 108.374C16.2526 108.134 15.5654 107.533 15.8343 106.632C15.9538 106.301 16.5515 104.919 17.1491 103.567C18.434 100.833 18.7926 99.3906 18.4937 98.0686C18.3443 97.3175 18.0754 97.0771 17.0594 96.7767C15.8941 96.4462 15.8642 96.4161 16.6411 96.2959C17.5674 96.1757 17.6571 95.8753 16.9698 95.3044C16.0734 94.5533 15.6251 93.1712 15.3562 90.1365C15.2068 88.454 14.9976 86.6512 14.8781 86.1104C14.5793 84.548 15.3263 80.9425 16.5216 78.5389C17.2387 77.0666 18.3443 75.5043 19.8085 73.9419C21.7807 71.8387 24.1413 69.7655 23.6333 70.6068C23.5138 70.7871 23.3046 71.8387 23.1552 72.9504C22.199 79.5905 26.0238 84.4879 34.1815 87.162C35.2572 87.5226 38.1557 88.1535 40.6059 88.6042C44.1319 89.2051 45.5961 89.6258 47.4786 90.4971C53.0366 93.1411 55.7259 96.8067 56.1442 102.395C56.2638 104.198 56.2339 104.348 55.9649 103.447C54.7996 99.601 52.7378 97.0771 49.2715 95.2744C46.4328 93.8021 44.3411 93.2313 41.8012 93.2313C39.8888 93.2313 37.1098 93.8622 36.4823 94.4331C36.3329 94.5533 36.9305 94.7335 37.7672 94.8537C40.0083 95.1542 43.7136 96.5964 45.7455 97.9484C49.1221 100.172 51.2736 102.996 52.7079 107.082C53.2457 108.615 53.425 109.847 53.5147 113.061C53.6043 115.285 53.5147 117.929 53.3653 118.92C53.186 119.912 53.1262 120.783 53.186 120.843C53.4549 121.114 56.6821 118.59 58.9232 116.366C71.324 104.168 72.6089 84.8785 61.9711 71.0274C54.4709 61.2626 42.1 56.3351 29.9981 58.228ZM19.0615 64.8681C19.1511 65.1385 19.2408 65.7394 19.2408 66.2201C19.2408 66.9412 19.1213 67.0915 18.4937 67.0915C17.5973 67.0915 17.5077 66.3704 18.2547 65.5291C18.7328 64.9883 18.7328 64.9883 18.2547 65.1685C17.9858 65.2587 17.7467 65.2286 17.7467 65.0784C17.7467 64.2972 18.7926 64.147 19.0615 64.8681ZM52.3493 65.8295C52.439 66.9112 52.3493 67.0915 51.8413 67.0915C50.915 67.0915 50.7955 66.5206 51.5425 65.6793L52.2597 64.9282L51.6023 65.1084C51.0644 65.2887 50.9449 65.2286 51.0943 64.838C51.4827 63.8766 52.2597 64.4775 52.3493 65.8295ZM35.6755 80.3116C35.6755 81.3031 35.5859 81.5134 35.1078 81.5134C34.2412 81.5134 34.0619 80.9726 34.6596 80.2815C34.9584 79.951 35.0779 79.6806 34.9285 79.7107C34.3607 79.8309 34.1516 79.7107 34.3309 79.4102C34.4205 79.2299 34.7791 79.1098 35.1078 79.1098C35.5859 79.1098 35.6755 79.3201 35.6755 80.3116Z" fill="white"/>
<rect x="6.70825" y="66.3101" width="7.71047" height="7.71047" fill="white"/>
<rect x="31.382" y="76.3335" width="7.71047" height="7.71047" fill="white"/>
<rect x="6.70825" y="118.741" width="7.71047" height="7.71047" fill="white"/>
<rect x="57.029" y="117.488" width="7.71047" height="3.42488" transform="rotate(94.7707 57.029 117.488)" fill="white"/>
<rect x="3.53259" y="113.744" width="9.73087" height="22.196" transform="rotate(-41.4541 3.53259 113.744)" fill="white"/>
<rect x="56.0556" y="115.657" width="1.54209" height="8.48152" fill="white"/>
<path d="M389.649 13.0207L394.42 16.5291V14.7698C394.42 14.7646 394.427 14.7602 394.427 14.7558C394.428 14.744 394.43 14.7359 394.434 14.7249C394.438 14.7028 394.453 14.688 394.463 14.6681C394.474 14.6482 394.48 14.6291 394.497 14.6144C394.502 14.6099 394.5 14.604 394.504 14.6004L410.005 2.75317L389.649 13.0207Z" fill="white"/>
<path d="M394.843 16.4381L395.125 16.1559L394.843 15.6226V16.4381Z" fill="white"/>
<path d="M394.902 14.8292L395.57 16.0957V16.0971L396.383 17.6199L409.956 3.32227L394.902 14.8292Z" fill="white"/>
<path d="M401.9 20.0856L411.034 2.80127L396.697 17.9011L401.9 20.0856Z" fill="white"/>
<path d="M390.776 20.2798L389.612 21.3562C389.463 21.4947 389.454 21.729 389.592 21.8778C389.665 21.9573 389.765 21.9964 389.863 21.9964C389.953 21.9964 390.043 21.9647 390.115 21.8984L391.277 20.822C391.427 20.6828 391.436 20.4493 391.297 20.299C391.158 20.1502 390.925 20.1413 390.776 20.2798V20.2798Z" fill="white"/>
<path d="M349.751 38.033C349.704 38.2319 349.826 38.4301 350.025 38.4779C351.057 38.7211 352.137 38.9016 353.234 39.0143C353.246 39.015 353.259 39.015 353.272 39.015C353.459 39.015 353.62 38.8736 353.64 38.6835C353.661 38.4816 353.513 38.3004 353.31 38.2776C352.244 38.1685 351.197 37.9932 350.197 37.7582C349.996 37.7132 349.797 37.8333 349.751 38.033V38.033Z" fill="white"/>
<path d="M368.987 36.6317C369.031 36.6317 369.075 36.6244 369.119 36.6082C369.381 36.508 369.64 36.4063 369.901 36.3009C370.624 35.9981 371.359 35.6651 372.086 35.31C372.269 35.2216 372.346 34.9999 372.256 34.8157C372.167 34.633 371.946 34.5549 371.762 34.6455C371.046 34.9933 370.325 35.3218 369.62 35.6158C369.367 35.7182 369.113 35.8176 368.855 35.9156C368.664 35.9886 368.568 36.2022 368.642 36.393C368.698 36.5418 368.839 36.6317 368.987 36.6317L368.987 36.6317Z" fill="white"/>
<path d="M368.746 23.4504C368.928 23.4504 369.084 23.3171 369.111 23.1322C369.261 22.058 369.369 20.9757 369.434 19.9128C369.448 19.7087 369.291 19.5333 369.089 19.5208C368.887 19.5127 368.709 19.6637 368.697 19.8671C368.633 20.9103 368.526 21.9741 368.379 23.0284C368.35 23.2303 368.491 23.4181 368.695 23.4469C368.71 23.4498 368.727 23.4506 368.746 23.4506L368.746 23.4504Z" fill="white"/>
<path d="M341.587 34.2252C341.692 34.2252 341.795 34.1817 341.869 34.0955C342.001 33.94 341.982 33.7065 341.827 33.5746C341.049 32.9123 340.296 32.1668 339.592 31.3578C339.457 31.2038 339.224 31.1891 339.07 31.3217C338.916 31.4558 338.9 31.6893 339.034 31.8426C339.762 32.6802 340.542 33.4508 341.349 34.1375C341.418 34.1964 341.503 34.2251 341.587 34.2251L341.587 34.2252Z" fill="white"/>
<path d="M367.267 29.6912C367.303 29.7015 367.338 29.7074 367.376 29.7074C367.534 29.7074 367.681 29.605 367.729 29.4451C368.017 28.4984 368.276 27.5201 368.497 26.5342L368.544 26.3176C368.588 26.1187 368.461 25.9213 368.261 25.8786C368.066 25.8299 367.865 25.9611 367.822 26.1615L367.775 26.3729C367.558 27.3402 367.305 28.3017 367.022 29.2306C366.961 29.4258 367.072 29.6321 367.267 29.691L367.267 29.6912Z" fill="white"/>
<path d="M368.829 13.1244C368.626 13.1495 368.483 13.3359 368.51 13.5392C368.642 14.5434 368.724 15.6065 368.752 16.6968C368.757 16.8964 368.922 17.0556 369.122 17.0556H369.132C369.336 17.0504 369.497 16.8802 369.492 16.6761C369.462 15.56 369.379 14.4718 369.244 13.442C369.216 13.2394 369.027 13.0994 368.829 13.1245V13.1244Z" fill="white"/>
<path d="M366.449 32.0149C366.259 31.942 366.045 32.0326 365.969 32.2197C365.575 33.2011 365.134 34.1714 364.659 35.1055C364.566 35.2882 364.637 35.5115 364.82 35.6028C364.874 35.6301 364.93 35.6426 364.987 35.6426C365.123 35.6426 365.253 35.5697 365.317 35.4422C365.802 34.4874 366.252 33.4958 366.654 32.4968C366.73 32.3068 366.639 32.0916 366.449 32.015V32.0149Z" fill="white"/>
<path d="M366.305 37.1843C366.246 36.9876 366.042 36.8749 365.844 36.9339C364.83 37.233 363.794 37.4923 362.763 37.706C362.564 37.7472 362.435 37.9439 362.477 38.1436C362.505 38.2806 362.606 38.3852 362.732 38.4221C362.276 39.1168 361.792 39.8027 361.288 40.4658C361.164 40.6286 361.195 40.8599 361.358 40.9829C361.425 41.0345 361.504 41.0581 361.581 41.0581C361.693 41.0581 361.803 41.0087 361.875 40.9122C362.528 40.0547 363.149 39.1588 363.719 38.2526C364.5 38.0728 365.282 37.8695 366.053 37.6418C366.249 37.5858 366.361 37.381 366.305 37.1843L366.305 37.1843Z" fill="white"/>
<path d="M363.474 2.30808L363.289 2.1821C363.119 2.07011 362.89 2.11653 362.777 2.28671C362.666 2.45763 362.711 2.68675 362.882 2.79873L363.055 2.91513C363.835 3.44557 364.549 4.09977 365.176 4.86149C365.248 4.9499 365.355 4.99558 365.461 4.99558C365.544 4.99558 365.627 4.96906 365.697 4.91233C365.853 4.78267 365.877 4.54912 365.747 4.39147C365.075 3.57518 364.309 2.87381 363.474 2.30799L363.474 2.30808Z" fill="white"/>
<path d="M340.89 56.0217C340.952 56.1573 341.087 56.2354 341.224 56.2354C341.277 56.2354 341.33 56.225 341.38 56.2015C342.361 55.7454 343.328 55.2754 344.276 54.7906C344.458 54.6978 344.529 54.4746 344.436 54.2933C344.343 54.1128 344.122 54.0392 343.939 54.1327C342.999 54.6131 342.041 55.0794 341.068 55.531C340.885 55.6158 340.804 55.8353 340.89 56.0217L340.89 56.0217Z" fill="white"/>
<path d="M387.772 23.5447C387.636 23.3937 387.401 23.3797 387.25 23.5182C386.459 24.2321 385.661 24.9401 384.853 25.6377C384.699 25.7711 384.682 26.0053 384.815 26.1586C384.888 26.2433 384.991 26.286 385.095 26.286C385.18 26.286 385.266 26.2573 385.337 26.1961C386.148 25.4963 386.95 24.7838 387.746 24.0655C387.897 23.93 387.909 23.6964 387.772 23.5447L387.772 23.5447Z" fill="white"/>
<path d="M367.901 10.4406C367.947 10.6042 368.095 10.7132 368.258 10.7132C368.29 10.7132 368.322 10.7088 368.356 10.7007C368.552 10.6469 368.669 10.4443 368.616 10.2469C368.316 9.14181 367.939 8.10891 367.495 7.17703C367.407 6.99212 367.186 6.91476 367.003 7.00169C366.818 7.08936 366.74 7.31038 366.828 7.49456C367.253 8.38674 367.613 9.37764 367.901 10.4407L367.901 10.4406Z" fill="white"/>
<path d="M341.499 3.70954C340.541 4.28198 339.643 4.91334 338.831 5.5823C338.673 5.71196 338.651 5.9455 338.782 6.10315C338.855 6.19156 338.96 6.23724 339.067 6.23724C339.15 6.23724 339.233 6.21072 339.303 6.15399C340.087 5.50788 340.954 4.89787 341.88 4.34238C342.055 4.23776 342.112 4.01159 342.007 3.83625C341.902 3.66164 341.674 3.60417 341.499 3.70953L341.499 3.70954Z" fill="white"/>
<path d="M357.019 0.837127C358.107 0.959424 359.137 1.17603 360.08 1.4803C360.118 1.49282 360.156 1.49798 360.193 1.49798C360.349 1.49798 360.494 1.39852 360.544 1.24233C360.608 1.04784 360.5 0.840079 360.306 0.777463C359.315 0.457727 358.237 0.230086 357.1 0.102629C356.905 0.077581 356.715 0.224926 356.691 0.429004C356.67 0.631599 356.816 0.815052 357.019 0.837156L357.019 0.837127Z" fill="white"/>
<path d="M357.298 45.8126C357.388 45.8126 357.48 45.7802 357.552 45.7109C358.343 44.9624 359.103 44.1859 359.811 43.4013C359.947 43.2503 359.935 43.0167 359.784 42.8797C359.633 42.7427 359.4 42.753 359.261 42.9062C358.567 43.6754 357.819 44.4379 357.042 45.1738C356.894 45.3145 356.888 45.5473 357.028 45.6954C357.103 45.7742 357.201 45.8125 357.298 45.8125L357.298 45.8126Z" fill="white"/>
<path d="M334.597 23.6524C334.636 23.6524 334.673 23.6472 334.712 23.6347C334.906 23.5713 335.013 23.3636 334.95 23.1691C334.619 22.1516 334.367 21.1231 334.199 20.1101C334.165 19.9097 333.972 19.7742 333.775 19.8059C333.573 19.8397 333.436 20.0298 333.47 20.2317C333.645 21.2808 333.906 22.3461 334.247 23.3981C334.296 23.5528 334.441 23.6523 334.597 23.6523L334.597 23.6524Z" fill="white"/>
<path d="M382.923 27.743C382.795 27.5838 382.562 27.5603 382.403 27.687C381.53 28.3957 380.706 29.0344 379.882 29.6437C379.719 29.7653 379.684 29.9966 379.807 30.1602C379.878 30.2582 379.99 30.3105 380.103 30.3105C380.179 30.3105 380.257 30.2884 380.322 30.239C381.153 29.6246 381.987 28.9777 382.87 28.2638C383.028 28.1334 383.052 27.9006 382.923 27.7429L382.923 27.743Z" fill="white"/>
<path d="M333.578 17.3453H333.582C333.784 17.3453 333.95 17.1839 333.952 16.9799C333.964 15.905 334.083 14.8611 334.303 13.8768C334.347 13.6779 334.223 13.4797 334.023 13.434C333.826 13.392 333.627 13.5143 333.582 13.714C333.348 14.7491 333.224 15.8461 333.211 16.9724C333.21 17.1765 333.373 17.343 333.578 17.3452L333.578 17.3453Z" fill="white"/>
<path d="M374.434 33.6574C374.502 33.776 374.626 33.8423 374.754 33.8423C374.817 33.8423 374.881 33.8261 374.939 33.793C375.849 33.2669 376.772 32.6945 377.683 32.0926C377.853 31.9806 377.9 31.7508 377.788 31.5806C377.676 31.4119 377.447 31.3655 377.276 31.476C376.378 32.0705 375.466 32.6356 374.57 33.1542C374.393 33.2552 374.332 33.4813 374.434 33.6574L374.434 33.6574Z" fill="white"/>
<path d="M337.021 7.83041C336.865 7.69928 336.632 7.71917 336.5 7.87683C335.815 8.69311 335.234 9.55581 334.776 10.4377L334.686 10.6108C334.594 10.7935 334.666 11.0167 334.847 11.1081C334.901 11.1353 334.958 11.1479 335.014 11.1479C335.148 11.1479 335.278 11.0749 335.344 10.9475L335.431 10.7802C335.865 9.94478 336.416 9.1285 337.067 8.35123C337.198 8.19578 337.177 7.96224 337.021 7.83037L337.021 7.83041Z" fill="white"/>
<path d="M332.204 59.1904C331.209 59.5588 330.204 59.9183 329.192 60.2697C328.998 60.336 328.897 60.5482 328.963 60.7405C329.016 60.8937 329.16 60.9873 329.313 60.9873C329.353 60.9873 329.394 60.9807 329.435 60.9674C330.452 60.6138 331.461 60.2513 332.462 59.8815C332.653 59.8107 332.751 59.5971 332.681 59.407C332.608 59.2177 332.394 59.1204 332.204 59.1904L332.204 59.1904Z" fill="white"/>
<path d="M337.069 29.25C337.139 29.3591 337.258 29.4158 337.378 29.4158C337.448 29.4158 337.517 29.3959 337.581 29.3554C337.752 29.2434 337.798 29.0143 337.686 28.8434C337.109 27.9667 336.585 27.0428 336.128 26.0955C336.04 25.912 335.819 25.8347 335.635 25.9231C335.452 26.0115 335.374 26.2332 335.463 26.4174C335.934 27.3936 336.474 28.3455 337.069 29.2502L337.069 29.25Z" fill="white"/>
<path d="M343.868 35.5397C343.762 35.7143 343.819 35.9412 343.994 36.0466C344.912 36.6013 345.896 37.089 346.917 37.4979C346.961 37.5156 347.008 37.523 347.054 37.523C347.201 37.523 347.341 37.4353 347.397 37.2909C347.473 37.1008 347.381 36.8864 347.191 36.8106C346.208 36.4179 345.26 35.9479 344.376 35.413C344.201 35.3084 343.974 35.3644 343.868 35.5397L343.868 35.5397Z" fill="white"/>
<path d="M335.329 58.7603C335.375 58.7603 335.42 58.7522 335.465 58.7352C336.468 58.3389 337.462 57.9315 338.441 57.5145C338.629 57.4342 338.717 57.2168 338.637 57.029C338.557 56.8411 338.337 56.7564 338.152 56.8337C337.178 57.25 336.191 57.6544 335.195 58.0486C335.004 58.1222 334.912 58.3381 334.987 58.5282C335.043 58.6726 335.183 58.7603 335.329 58.7603H335.329Z" fill="white"/>
<path d="M356.473 39.1534H356.478C357.538 39.1387 358.627 39.0687 359.715 38.9456C359.917 38.9235 360.063 38.7393 360.04 38.536C360.017 38.3341 359.827 38.1824 359.631 38.2104C358.567 38.3304 357.504 38.4004 356.468 38.4144C356.264 38.4166 356.1 38.5846 356.103 38.788C356.107 38.9906 356.271 39.1534 356.473 39.1534L356.473 39.1534Z" fill="white"/>
<path d="M350.306 0.782403C350.338 0.962162 350.493 1.08741 350.669 1.08741C350.691 1.08741 350.713 1.08667 350.733 1.08225C351.788 0.898807 352.844 0.782413 353.873 0.738205C354.077 0.730101 354.235 0.556235 354.226 0.353628C354.216 0.148825 354.047 0.00220664 353.84 0C352.78 0.0456774 351.691 0.165027 350.606 0.3551C350.406 0.389725 350.272 0.582005 350.306 0.782394L350.306 0.782403Z" fill="white"/>
<path d="M346.752 52.6234C346.574 52.7251 346.513 52.9505 346.613 53.1281C346.681 53.2474 346.807 53.3152 346.935 53.3152C346.998 53.3152 347.06 53.299 347.117 53.2673C348.07 52.7265 349 52.1688 349.884 51.6104C350.057 51.5006 350.108 51.2722 349.999 51.1006C349.889 50.9297 349.66 50.8781 349.489 50.9864C348.615 51.5375 347.695 52.09 346.752 52.6234H346.752Z" fill="white"/>
<path d="M320.061 63.2453C319.042 63.5591 318.02 63.8707 316.997 64.1802C316.802 64.2391 316.69 64.4454 316.75 64.6414C316.798 64.8005 316.945 64.9036 317.104 64.9036C317.138 64.9036 317.174 64.8992 317.211 64.8874C318.236 64.578 319.259 64.2663 320.279 63.9503C320.474 63.8899 320.584 63.6829 320.523 63.4876C320.463 63.2939 320.254 63.1834 320.061 63.2452L320.061 63.2453Z" fill="white"/>
<path d="M347.443 1.10511C346.403 1.41747 345.376 1.79394 344.392 2.22346C344.204 2.30597 344.119 2.52329 344.201 2.71043C344.261 2.84967 344.397 2.93218 344.54 2.93218C344.589 2.93218 344.639 2.9226 344.688 2.90271C345.645 2.48424 346.644 2.11885 347.657 1.81384C347.853 1.7549 347.964 1.54863 347.904 1.35339C347.846 1.15668 347.639 1.04176 347.443 1.10512L347.443 1.10511Z" fill="white"/>
<path d="M326.158 61.3009C325.15 61.6346 324.136 61.9639 323.116 62.2881C322.921 62.3507 322.814 62.5585 322.875 62.753C322.925 62.9092 323.07 63.0094 323.227 63.0094C323.264 63.0094 323.302 63.0042 323.339 62.9924C324.361 62.666 325.379 62.3375 326.39 62.0015C326.585 61.9374 326.689 61.7282 326.625 61.5344C326.562 61.3421 326.353 61.2346 326.158 61.3009L326.158 61.3009Z" fill="white"/>
<path d="M352.128 49.2058C351.962 49.3244 351.924 49.5557 352.043 49.7215C352.114 49.8217 352.228 49.8754 352.344 49.8754C352.418 49.8754 352.494 49.8533 352.558 49.8069C353.445 49.1733 354.307 48.5132 355.124 47.8459C355.281 47.7169 355.304 47.4834 355.175 47.3265C355.046 47.1681 354.813 47.146 354.654 47.2749C353.851 47.9298 353.001 48.5804 352.128 49.2058L352.128 49.2058Z" fill="white"/>
<path d="M312.408 66.3101C312.443 66.3101 312.478 66.3056 312.513 66.2953L314.033 65.8415C314.228 65.7826 314.339 65.5778 314.281 65.3811C314.223 65.1858 314.017 65.0687 313.82 65.1343L312.303 65.5866C312.106 65.6455 311.996 65.8518 312.054 66.0471C312.102 66.2077 312.249 66.3101 312.408 66.3101H312.408Z" fill="white"/>
<path d="M97.754 174.877C96.8753 174.877 96.0332 174.762 95.2277 174.532C94.4222 174.291 93.7736 173.983 93.282 173.606L94.145 171.692C94.6157 172.026 95.1702 172.304 95.8083 172.523C96.4569 172.733 97.1107 172.837 97.7697 172.837C98.2718 172.837 98.6746 172.79 98.978 172.696C99.2918 172.591 99.5219 172.45 99.6684 172.272C99.8148 172.094 99.8881 171.89 99.8881 171.66C99.8881 171.367 99.773 171.137 99.5429 170.97C99.3127 170.792 99.0093 170.651 98.6328 170.546C98.2562 170.431 97.8377 170.326 97.3774 170.232C96.9276 170.128 96.4726 170.002 96.0123 169.856C95.5624 169.709 95.1492 169.521 94.7726 169.291C94.396 169.061 94.0874 168.757 93.8468 168.381C93.6167 168.004 93.5016 167.523 93.5016 166.937C93.5016 166.309 93.669 165.739 94.0038 165.227C94.349 164.704 94.8616 164.29 95.5415 163.987C96.232 163.673 97.095 163.516 98.1306 163.516C98.821 163.516 99.501 163.6 100.171 163.767C100.84 163.924 101.431 164.165 101.944 164.489L101.159 166.419C100.646 166.126 100.134 165.912 99.6213 165.776C99.1087 165.629 98.6066 165.556 98.1149 165.556C97.6233 165.556 97.2205 165.614 96.9067 165.729C96.5929 165.844 96.3679 165.996 96.232 166.184C96.096 166.362 96.028 166.571 96.028 166.812C96.028 167.094 96.143 167.324 96.3732 167.502C96.6033 167.669 96.9067 167.805 97.2833 167.91C97.6599 168.015 98.0731 168.119 98.5229 168.224C98.9832 168.328 99.4382 168.449 99.8881 168.585C100.348 168.721 100.767 168.904 101.143 169.134C101.52 169.364 101.823 169.667 102.053 170.044C102.294 170.421 102.414 170.897 102.414 171.472C102.414 172.089 102.242 172.654 101.897 173.167C101.551 173.679 101.034 174.092 100.343 174.406C99.6632 174.72 98.8001 174.877 97.754 174.877ZM119.925 174.689V165.776H116.41V163.705H125.982V165.776H122.467V174.689H119.925ZM139.006 174.689L143.902 163.705H146.412L151.324 174.689H148.656L144.639 164.991H145.643L141.611 174.689H139.006ZM141.454 172.335L142.129 170.405H147.778L148.468 172.335H141.454ZM168.171 174.689V170.201L168.752 171.739L163.919 163.705H166.618L170.321 169.871H168.767L172.486 163.705H174.981L170.148 171.739L170.713 170.201V174.689H168.171ZM213.127 174.877C212.259 174.877 211.453 174.736 210.71 174.453C209.978 174.171 209.34 173.773 208.796 173.261C208.263 172.748 207.844 172.147 207.541 171.456C207.248 170.766 207.101 170.013 207.101 169.197C207.101 168.381 207.248 167.628 207.541 166.937C207.844 166.247 208.268 165.645 208.812 165.133C209.356 164.62 209.994 164.222 210.726 163.94C211.458 163.658 212.253 163.516 213.111 163.516C213.98 163.516 214.775 163.658 215.496 163.94C216.229 164.222 216.862 164.62 217.395 165.133C217.939 165.645 218.363 166.247 218.666 166.937C218.969 167.617 219.121 168.37 219.121 169.197C219.121 170.013 218.969 170.771 218.666 171.472C218.363 172.162 217.939 172.764 217.395 173.276C216.862 173.779 216.229 174.171 215.496 174.453C214.775 174.736 213.985 174.877 213.127 174.877ZM213.111 172.712C213.603 172.712 214.053 172.628 214.461 172.461C214.879 172.293 215.245 172.053 215.559 171.739C215.873 171.425 216.114 171.054 216.281 170.625C216.459 170.196 216.548 169.72 216.548 169.197C216.548 168.674 216.459 168.198 216.281 167.769C216.114 167.34 215.873 166.969 215.559 166.655C215.256 166.341 214.895 166.1 214.476 165.933C214.058 165.765 213.603 165.682 213.111 165.682C212.62 165.682 212.165 165.765 211.746 165.933C211.338 166.1 210.977 166.341 210.663 166.655C210.35 166.969 210.104 167.34 209.926 167.769C209.759 168.198 209.675 168.674 209.675 169.197C209.675 169.709 209.759 170.185 209.926 170.625C210.104 171.054 210.344 171.425 210.648 171.739C210.962 172.053 211.328 172.293 211.746 172.461C212.165 172.628 212.62 172.712 213.111 172.712ZM234.683 174.689V163.705H236.786L243.266 171.613H242.246V163.705H244.757V174.689H242.67L236.174 166.78H237.194V174.689H234.683ZM263.345 168.13H268.634V170.107H263.345V168.13ZM263.534 172.649H269.512V174.689H261.007V163.705H269.308V165.745H263.534V172.649ZM306.891 174.877C306.012 174.877 305.17 174.762 304.365 174.532C303.559 174.291 302.911 173.983 302.419 173.606L303.282 171.692C303.753 172.026 304.307 172.304 304.945 172.523C305.594 172.733 306.248 172.837 306.907 172.837C307.409 172.837 307.812 172.79 308.115 172.696C308.429 172.591 308.659 172.45 308.805 172.272C308.952 172.094 309.025 171.89 309.025 171.66C309.025 171.367 308.91 171.137 308.68 170.97C308.45 170.792 308.146 170.651 307.77 170.546C307.393 170.431 306.975 170.326 306.514 170.232C306.065 170.128 305.61 170.002 305.149 169.856C304.699 169.709 304.286 169.521 303.91 169.291C303.533 169.061 303.224 168.757 302.984 168.381C302.754 168.004 302.639 167.523 302.639 166.937C302.639 166.309 302.806 165.739 303.141 165.227C303.486 164.704 303.999 164.29 304.678 163.987C305.369 163.673 306.232 163.516 307.268 163.516C307.958 163.516 308.638 163.6 309.307 163.767C309.977 163.924 310.568 164.165 311.081 164.489L310.296 166.419C309.783 166.126 309.271 165.912 308.758 165.776C308.246 165.629 307.744 165.556 307.252 165.556C306.76 165.556 306.357 165.614 306.044 165.729C305.73 165.844 305.505 165.996 305.369 166.184C305.233 166.362 305.165 166.571 305.165 166.812C305.165 167.094 305.28 167.324 305.51 167.502C305.74 167.669 306.044 167.805 306.42 167.91C306.797 168.015 307.21 168.119 307.66 168.224C308.12 168.328 308.575 168.449 309.025 168.585C309.485 168.721 309.904 168.904 310.28 169.134C310.657 169.364 310.96 169.667 311.19 170.044C311.431 170.421 311.551 170.897 311.551 171.472C311.551 172.089 311.379 172.654 311.034 173.167C310.688 173.679 310.17 174.092 309.48 174.406C308.8 174.72 307.937 174.877 306.891 174.877ZM329.062 174.689V165.776H325.547V163.705H335.119V165.776H331.604V174.689H329.062ZM352.476 168.13H357.764V170.107H352.476V168.13ZM352.665 172.649H358.643V174.689H350.138V163.705H358.439V165.745H352.665V172.649ZM374.317 174.689V163.705H379.072C380.055 163.705 380.902 163.867 381.614 164.191C382.325 164.505 382.874 164.96 383.261 165.556C383.648 166.153 383.842 166.864 383.842 167.69C383.842 168.506 383.648 169.212 383.261 169.809C382.874 170.405 382.325 170.865 381.614 171.19C380.902 171.503 380.055 171.66 379.072 171.66H375.729L376.859 170.515V174.689H374.317ZM376.859 170.797L375.729 169.589H378.93C379.715 169.589 380.301 169.422 380.688 169.087C381.075 168.752 381.269 168.287 381.269 167.69C381.269 167.084 381.075 166.613 380.688 166.278C380.301 165.943 379.715 165.776 378.93 165.776H375.729L376.859 164.568V170.797ZM416.113 174.689L421.009 163.705H423.52L428.431 174.689H425.764L421.747 164.991H422.751L418.718 174.689H416.113ZM418.561 172.335L419.236 170.405H424.885L425.575 172.335H418.561ZM450.754 163.705H453.296V174.689H450.754V163.705ZM445.764 174.689H443.222V163.705H445.764V174.689ZM450.943 170.185H445.576V168.036H450.943V170.185ZM471.885 168.13H477.173V170.107H471.885V168.13ZM472.073 172.649H478.052V174.689H469.547V163.705H477.848V165.745H472.073V172.649ZM492.282 174.689L497.178 163.705H499.689L504.6 174.689H501.932L497.915 164.991H498.92L494.887 174.689H492.282ZM494.73 172.335L495.405 170.405H501.054L501.744 172.335H494.73ZM519.391 174.689V163.705H524.381C525.574 163.705 526.625 163.935 527.535 164.395C528.445 164.845 529.157 165.478 529.669 166.294C530.182 167.11 530.438 168.077 530.438 169.197C530.438 170.306 530.182 171.273 529.669 172.1C529.157 172.916 528.445 173.554 527.535 174.014C526.625 174.464 525.574 174.689 524.381 174.689H519.391ZM521.933 172.602H524.256C524.988 172.602 525.621 172.466 526.154 172.194C526.698 171.911 527.117 171.514 527.41 171.001C527.713 170.489 527.865 169.887 527.865 169.197C527.865 168.496 527.713 167.894 527.41 167.392C527.117 166.88 526.698 166.487 526.154 166.215C525.621 165.933 524.988 165.792 524.256 165.792H521.933V172.602Z" fill="white"/>
<path fill-rule="evenodd" clip-rule="evenodd" d="M314.179 83.1868H346.859V132.95L339.432 132.95V107.697L346.799 107.697L332.004 83.1868L317.21 107.697L324.577 107.697V132.95L314.179 132.95V83.1868Z" fill="white"/>
</svg>
