<svg width="1081" height="743" viewBox="0 0 1081 743" fill="none" xmlns="http://www.w3.org/2000/svg">
<path d="M64.5 167L1 149.5L5.5 742H1080.5V580V208.5V1.5H1050L1070.5 10V26.5V63.5L1061 88.5L1056 114.5L1061 138L1056 161.5L1051 188.5L1046 174L1041.5 156L1051 138L1041.5 114.5V88.5L1034.5 51.5V20L1041.5 1.5H1010L1014 5.5L1019 97V114.5L1025 138V208.5H1002L984 216.5L955 226.5L916.5 234.5L905 216.5L898.5 161.5L892.5 122V114.5L882 14.5L892.5 1.5H859.5L867.5 88.5L872.5 161.5L877 220L882 268.5L867.5 277.5L847 277L857.5 275.5L847.5 269.5L847 268.5H853.5L849.5 263L843 248.5L838 257.5L825.5 268.5L833 270.5L824.5 277.5H833L766 296.5L719 309L672.5 318.5H609L599.5 314.5L594.5 263L599.5 252.5L629 248.5L600.5 249.5L607.5 243.5L620.5 237L636 230L618 234.5L626 226.5L604.5 243.5L603 234.5L609 216.5H603L599.5 226.5V237L594.5 248.154L588 244.5L572.5 234.5L584.5 248.154L588 249.5V254.5L570 252.5L591 260V314.5L544.5 318.5L482 302L488 293.5L478 302L454.5 293.5L451.5 281V292.5L430 284L427 277.5V281L412.5 277.5L373 263L369 260L361.5 252.5L369 249.5L361.5 244.5L355.5 237L352 244.5V256.25L355.5 260L319.5 277.5L290.5 281L262 277.5L229.5 265.5L221.5 250.5L215.5 195.5V157L211 149.5V112L207 86.5V68V54.5L202 1H182V19.5L185.5 63.5V112L191.5 157V220.5L165 210.5L159.5 205.5L165 174V149.5V121L169.5 92.5V63.5V39.5L175 1H152V9L144.5 51.5V92.5L137 137V167L127.5 195.5L121.5 184.5L115 149.5V112L111.5 92.5L105.5 54.5L104 30V1H80L84 19.5V51.5L89 107.5L95.5 184.5L64.5 167Z" fill="url(#paint0_linear_4083_141)"/>
<path d="M348.5 252.5L352 256.25M352 256.25L355.5 260L319.5 277.5L290.5 281L262 277.5L229.5 265.5L221.5 250.5L215.5 195.5V157L211 149.5V112L207 86.5V68V54.5L202 1H182V19.5L185.5 63.5V112L191.5 157V220.5L165 210.5L159.5 205.5L165 174V149.5V121L169.5 92.5V63.5V39.5L175 1H152V9L144.5 51.5V92.5L137 137V167L127.5 195.5L121.5 184.5L115 149.5V112L111.5 92.5L105.5 54.5L104 30V1H80L84 19.5V51.5L89 107.5L95.5 184.5L64.5 167L1 149.5L5.5 742H1080.5V580V208.5V1.5H1050L1070.5 10V26.5V63.5L1061 88.5L1056 114.5L1061 138L1056 161.5L1051 188.5M352 256.25V244.5L355.5 237L361.5 244.5L369 249.5L361.5 252.5L369 260L373 263L412.5 277.5L427 281V277.5L430 284L451.5 292.5V281L454.5 293.5L478 302L488 293.5L482 302L544.5 318.5L591 314.5V260L570 252.5L588 254.5V249.5L584.5 248.154M575 244.5L584.5 248.154M584.5 248.154L572.5 234.5L588 244.5L594.5 248.154L599.5 237V226.5M599.5 226.5L594.5 220M599.5 226.5L603 216.5H609L603 234.5L604.5 243.5L626 226.5L618 234.5L636 230L620.5 237L607.5 243.5L600.5 249.5L629 248.5L599.5 252.5L594.5 263L599.5 314.5L609 318.5H672.5L719 309L766 296.5L833 277.5H824.5L833 270.5L825.5 268.5L838 257.5L843 248.5L849.5 263L853.5 268.5H847L847.5 269.5L857.5 275.5L847 277L867.5 277.5L882 268.5L877 220L872.5 161.5L867.5 88.5L859.5 1.5H892.5L882 14.5L892.5 114.5V122L898.5 161.5L905 216.5L916.5 234.5L955 226.5L984 216.5L1002 208.5H1025V138L1019 114.5V97L1014 5.5L1010 1.5H1041.5L1034.5 20V51.5L1041.5 88.5V114.5L1051 138L1041.5 156L1046 174L1051 188.5M1051 188.5L1050 212" stroke="#AA2B29"/>
<defs>
<linearGradient id="paint0_linear_4083_141" x1="1081" y1="272" x2="-15.5" y2="285" gradientUnits="userSpaceOnUse">
<stop stop-color="#CB4C07"/>
<stop offset="0.505208" stop-color="#B2312E"/>
<stop offset="1" stop-color="#D15306"/>
</linearGradient>
</defs>
</svg>
