<svg width="1080" height="765" viewBox="0 0 1080 765" fill="none" xmlns="http://www.w3.org/2000/svg">
<path d="M1 58.7325L0 765H4H1079.5L1077 215.732H983.5L976 206.732L974.5 205.232V202.232H977H980.5L982 205.232L987 208.732L1023 210.232L1027.5 208.732H1032L1035 206.732L1038.5 208.732L1042 206.732L1046 205.232V202.232L1042 198.732H1037L1014 178.232L988 177.232L970.5 156.732L969 153.232H976L982 154.732L986 155.232L991 156.232L999 158.732L1003.5 156.732L1008 152.232L1001.5 150.232L992.5 146.232L986 144.232L981 141.732L976 138.232L972.5 135.732L969 133.732L966.5 131.232L965 129.232L963.5 125.732V120.232H965L968 121.232H972.5L974 121.732L977 123.732L981 124.732L984.5 125.232H987L989.5 125.732L992.5 126.732H996L1002 124.232L996.5 119.732L991 117.232L986 115.732H980.5L976.5 114.232L972 109.232L969 106.732L966.5 102.732L965 98.2325L964.5 95.7325H967.5L971 99.2325L976 101.232H982H988L994.5 100.232L1005 98.7325L988 84.2325H984.5V83.2325L969 71.2325V68.7325H967.5L966.5 66.2325V64.2325L969 63.2325L974.5 66.2325L980 65.7325L983.5 64.2325L986 63.2325L992 60.2325L991.5 57.7325H985.5L982 56.7325L976 51.7325L974 50.7325L973.5 51.7325V53.2325H970.5L964.5 47.2325V44.7325L966.5 44.2325V43.7325L969 42.7325V41.7325H978L979 40.7325V39.2325L959.5 26.2325V24.7325L960 23.7325V18.7325L956.5 16.2325V14.2325L965 11.7325V9.73248L956.5 0.732483H931L917.5 14.2325L936.5 18.7325V20.7325L909.5 39.7325L923.5 40.7325V44.2325L892 56.7325L909.5 65.7325L917.5 63.2325V73.7325L883 96.2325L885.5 97.2325H896.5L898.5 96.2325L902 95.7325L905 94.2325L908.5 92.2325L909.5 93.2325H913.5L916 96.2325V101.232L913.5 105.732L909.5 109.232L903.5 112.232L898.5 114.232L872 112.232L873.5 114.232L881 120.732L892 124.232H916V129.232L896 143.732H889L873.5 136.232L867 142.232L876 153.732L881 155.232H896L898.5 153.732L901 151.232L906.5 152.232L909.5 153.732V158.732L906.5 160.732L903.5 162.732L896 165.232H876L885.5 171.232V173.732H883L872 176.732L867 186.232H859.5L844 181.732H837.5V186.232L849.5 197.732L846 198.732H827.5V200.232L849.5 206.732L867 205.232L879 202.232L906.5 200.232L909.5 201.732V206.732L878 227.732L854.5 229.232L842 241.732L802.5 245.732L808.5 249.232L821.5 254.232L837.5 254.732H858.5L876 253.232L898.5 249.732L903.5 250.232V254.232L901 258.232L878 275.732L873.5 276.732L867 277.732L857 281.732L849.5 285.232L844 286.232L837.5 287.732L833 290.232H827.5V288.732L813 289.232V294.232L831.5 309.232L815 342.732V344.232L813 346.732L810.5 348.232L806 352.732L805 353.732L803 354.232L802.5 355.232H799V356.232H795V358.232H790.5V359.232L786.5 359.732H785L780.5 359.232L782.5 356.232L783.5 353.732L784 350.732L786.5 345.732L787 342.732L789 340.232V336.732L790.5 334.732V331.232L792 329.232L792.5 327.232L793 323.732L794.5 321.732L795 317.232L796 315.232L797.5 311.732L797 307.232L790.5 322.232L789 326.232L783.5 333.232L779 342.232L773.5 350.232L769.5 355.232H768L769 289.232V282.732L768 277.732V258.732V206.732L768.5 201.732H769.5V200.232H770.5V198.732H772V197.732H775V196.232H778V195.232H788V193.732H796V192.232H786V193.732H775L773.5 195.232H769.5V193.732L773.5 190.732L775 189.232L776.5 188.232L778 187.232L779 186.732L780.5 186.232L782 185.232L785 184.732L786 183.732L787 182.232H793.5L796 180.732L797.5 179.232V178.232H793.5L792 179.732H790L789 180.732L785 181.232V182.232H781L778 183.732L776.5 185.232L775 183.732V181.732L776.5 180.732L779 179.232L780.5 177.732L783.5 175.232L786 173.732L789 172.232L792 170.732L795 169.232L797.5 167.732L799.5 166.732V165.232L800.5 164.232H798V165.232H795.5L792 166.732L791 168.232L787.5 169.732L785 171.232L783.5 172.232V170.732L785 169.232V153.732H783.5V166.732L783 168.232L781 170.732L779.5 172.732L772 177.732V163.732H770.5V178.232H769.5L765 182.232V183.732H764L763.5 180.732H762V176.732L761 176.232V172.732L758 170.732V173.732H759.5V179.732H761V185.232H762V189.732V190.732L761 190.232L760 189.232H759.5V188.232L757.5 186.732V185.232H756.5L756 177.732L755 176.232V165.232H754V161.232V153.732L761 145.232L762 142.732L759.5 143.732L752.5 151.232L752 148.232H751V142.732L749.5 142.232L748 141.232H746.5V142.232L748 143.732V148.232H750L749.5 155.732L751 163.732L749.5 156.732H747.5L748 155.232H746.5V151.232H745.5V146.732H744V143.732H742.5V141.232H739.5V143.732H741V148.232H742.5V152.232H744V157.232H745.5V160.732L746.5 161.232V163.732H748V166.732H749.5L750 171.732H751V176.232L752.5 177.732L752 185.232L734.5 169.732L732 168.232L728 165.232L715.5 152.232H712.5L714.5 155.232L727 168.232L728 169.732L724 167.232L716.5 163.732L704.5 158.232L700 157.232L701.5 159.232L718.5 168.232L730 173.732L742.5 181.732L750 188.232L751 188.732L750 190.232L729 188.732H722V186.732H703L704.5 188.732H709.5H711L719.5 191.732H724.5L729 193.732L734.5 195.232H751.5L756 197.732L757.5 207.732L759.5 212.232V270.232L757.5 271.232V296.732L753.5 302.232H750L746.7 297.232L751.5 299.232V295.232L741.5 287.232V285.732H748V282.732L740 272.232L738.5 270.232H736V271.232L734.5 276.232L732 279.232L724.5 291.732L723 295.232L721 296.732L718.5 298.232V299.232L721 299.732L723 300.732V303.232H719.5H716V305.732L717.5 307.232H719.5L722 308.732L725.5 310.732V312.232L723 314.732L721 315.232L718.5 317.232L714.5 318.732L709.5 319.732V321.232L712.5 323.232H716L718.5 321.232L722 319.732H725.5V323.232L723 325.232L722 328.232L716 330.732L709.5 331.232L711 333.232H726.5V338.232L725.5 339.732L723 340.232L719.5 340.732L716 342.232L711 343.732L706 346.732V348.232H707.5L712.5 346.732L717.5 345.232H723V347.232L717.5 348.732L712.5 351.732L704.5 355.232L700 357.732L698.5 360.732H694V362.232H692.5V363.732H691H686.5V364.732H683.5L682 363.732L681 362.232H679L672.5 359.232L671.5 355.232L676.5 356.232H683.5L683 355.232H688L687.5 353.732H691.5L691 351.732H693.5V350.732H698.5L698 349.732L696.5 349.232H694H691.5L689.5 348.732L686.5 348.232L682 347.732L681 347.232L679 346.732L678 345.232H675L674 344.232L671.5 343.732L670.5 342.232H665L664.5 341.232L659.5 340.232L657.5 339.732L656.5 338.232H654.5L652.5 336.732L650 333.232V330.232L655.5 331.232L658.5 332.232L661.5 332.732L664.5 333.232L668.5 333.732L675 333.232L676 332.732L684 332.232L685.5 330.732L686.5 329.732L683 327.232L681 325.232L674 324.732L671.5 323.232L668 321.232L667 319.732V318.732L665.5 317.232H659V315.232L654.5 314.732V313.232L659 312.232V311.232L662 310.732L666 310.232L668.5 308.732V304.232H665.5L664.5 305.732H663L661 304.232L659 303.232L652.5 302.232L649.5 300.732L648 299.732V297.232L649.5 298.232H658.5L659 297.232L661.5 296.732L665.5 292.732H662L661 294.232H656V292.732H652V291.732L647 287.232V284.732H649.5V285.732L653 288.732L661 288.232V284.732L658.5 282.732L658 280.732L656.5 279.232L655 277.732L652.5 277.232L650.5 276.232L647.5 274.732V271.232H650.5H652.5L654.5 270.232L657 269.232L658.5 268.232L657 267.232L654.5 266.232L648 265.232L646.5 264.232L647 262.732H652.5V261.732L641 251.232V249.732L644 251.232L647.5 250.232L647 247.732L642 241.232L640.5 239.732V237.732H638.5V234.732H637V233.232H636V234.732L630 245.732L627.5 247.732H625L623.5 249.732H620L622.5 251.732H627.5V254.232L625 256.732L622.5 259.232L619 260.732V261.732L620 263.732H622.5V266.232L620 267.232H617L615 269.232L615.5 270.232L617 271.232H623.5V274.732L619 279.732H615L613 281.232L610.5 282.732H607L607.5 284.732L610.5 287.232H613H615H617H619L620 284.732H622.5H625V287.232L622.5 290.232L617 292.732L610.5 295.232V297.232H613H615L617 299.232L619 299.732H620L622.5 299.232L625 297.232V300.732L610.5 307.232L607.5 308.732L607 310.732L608 312.232L619 309.732V313.232L604 317.232L597.5 325.732H593.5V326.732L591 327.232V328.732H589.5H588V330.232H587L587.5 331.232H590.5L591 332.732H601.5L604 333.732L603.5 337.232H605V338.232H603.5V339.732L605 340.732V342.232H603H602V343.732H601L598.5 344.232V345.232H596V346.732H592L593 348.232H590.5L591 349.732H585.5V350.732H582.5V352.232H578.5V353.732H575.5V355.232H569.5V356.732H565.5V358.232H561.5V359.732H552.5V357.732L551 356.732V353.732L550 352.232L549.5 331.232H548L547.5 348.232L546 354.732L544 359.232L542 363.732L508.5 367.732L507 370.732L481.5 377.732L467.5 372.232L466 367.732V363.732L464.5 349.732H463V370.732L446 363.732L427.5 356.732H416.5V354.732L422.5 337.232L423.5 335.232V332.732L423 332.232L422.5 332.732L396 366.732L392.5 366.232L387.5 360.732L364 335.232V334.232H358V332.732H353V331.232H350V330.232H349.5H348V328.232H352.5L352 326.732H348.5H346.5C346.167 326.566 345.5 326.132 345.5 325.732C345.5 325.332 344.5 325.566 344 325.732L341 325.232L340.5 323.732H338.5L337 322.732L335 322.232L334.5 321.732L332 321.232L331.305 320.232L330 319.732L329.5 319.232V318.232L330 317.732L331.305 317.232L332 317.732H334H335.5H337.5H339.5L346.5 316.732H348.5H350H351.5L353.5 315.732L354 315.232H356H358L358.5 313.732H361C361.5 313.566 362.6 313.132 363 312.732C363.4 312.332 363.5 311.566 363.5 311.232L364.5 309.732L365.5 308.732H363C362.6 308.732 361.833 309.066 361.5 309.232L359.5 310.232L357.5 311.232H356L354.5 310.732L353 310.232L352 309.232L348.5 308.732H346L344.5 308.232L341 306.732L337.5 305.732L334 304.232C333.333 303.732 331.861 302.632 331.305 302.232C330.609 301.732 330.5 301.732 330 301.232C329.5 300.732 329 300.732 328.5 299.732C328 298.732 327.5 298.732 327 298.232C326.5 297.732 325 297.732 325 297.232C325 296.832 324.333 296.066 324 295.732L323 294.232V291.232L329 291.732L329.5 292.732H334V294.232H358.5V292.732H362.5V292.232V291.732L368 290.732L370 288.732H367.5H365.5H363.5H361.5H359.5H357L355.5 288.232L353.5 287.732L352 286.732H350L348.5 286.232C347.833 286.066 346.4 285.632 346 285.232C345.6 284.832 344.5 284.399 344 284.232L341 283.232L338 282.232L335 281.232L332 280.232L330 278.732L328.5 277.732C328 277.732 326.8 277.632 326 277.232L324 276.232C323 275.732 322.5 275.732 322 275.232C321.5 274.732 320.5 274.732 320 274.232C319.6 273.832 319.167 273.732 319 273.732V272.732C318.833 272.232 318.6 271.232 319 271.232C319.4 271.232 319.5 270.232 319.5 269.732V268.732L321 268.232L323.5 268.732L325 269.232H327.5L328.5 269.732H329.5L330.5 270.732C330.9 271.132 331.203 271.232 331.305 271.232H332.5H334H335L336.5 272.232H338H339.5H342H344H346L348 271.732H351H353.5L354.5 270.232L355.5 268.732L354.5 267.732V265.732C354 265.399 352.8 264.532 352 263.732C351 262.732 350 263.732 349.5 263.732H346.5L342 262.232H339.5L337 258.732L335 257.232L332.5 254.732H326V251.732L327.5 251.232H332.5L336 250.232V248.732H339L339.5 247.232L339 244.732H338L337 243.232L336 244.732V246.232H334L333 244.732L331.305 243.232H328.5L327.5 242.232L325 241.732L323 240.732L319.5 240.232V237.732H322H325L328.5 236.732H330H333L334 234.732L337 233.232V232.232H327.5H325V230.732H323L322 229.232L321.5 228.732L320.5 227.732L319.5 226.232V223.732L323 225.232V226.232H325L327.5 227.732H333L334 225.232L333 224.732L331.5 221.732L330 220.732L328.708 219.232L326 216.732V214.732L320.5 213.732L318 210.732H326L325 209.232H330L328.5 206.732H326L325 205.232H323H322L320.5 203.732H319.5L318 202.439H316.5V201.232H323L322 199.232L319.5 197.732L318 196.232L316.5 194.732V193.232C315.833 193.066 314.3 192.532 313.5 191.732L312.5 190.732V189.732H318V188.232V186.732L316.5 185.732V183.232H315L313.5 180.232C313.1 179.432 312.667 179.232 312.5 179.232L311.5 178.232V176.232L310 175.232L308 173.732V172.732H307V173.732V175.232L305.5 176.232L304.5 178.232L303.5 180.232L302 183.232L300 185.732L298.5 186.732V193.232L296 197.732H292L289 199.232V201.232L293 203.732V206.732H286V209.232H289V210.732H290.5V212.232H294.5V213.732H293V214.732H291.5L292 216.232L290.5 216.732V217.732H289V219.232H284.5V220.732H283V221.732H279V223.232L277.5 223.732V224.732H278L279 225.232V226.232H280.5H291.5V224.732H293V223.232H294.5V227.732H293V229.232H291.5V230.732H288.5V232.232H286V233.232H283V234.732H279V237.732H289L292 240.232V237.732H296V239.232H295V240.732H292V241.732L289 242.232V243.232H286V244.732H283V246.232H281.5V247.732H279V248.732H277.5V250.232H284.5V248.732H292V250.232H290.5V251.732H284.5V253.232H282V254.732H280V255.732H277.5V256.232V257.232H276V258.732H270.5V259.232V261.732H267.5V263.232H266H265V264.732H263.5V266.232H262V267.232H260.5V268.732H257.5V270.232H256.5V271.732L272.5 272.732H280H284L287.5 271.732V268.732H291.5V276.232H290.5H289V277.232H279V275.732H269C268.833 275.399 268.6 274.732 269 274.732H260.5V273.232H259H254.5L254 271.732H252V264.232H250.5V270.232H242V268.732H236.5V267.232L229.5 258.732H227V261.732H220.5L216.5 261.232L216 259.732L208 246.732V243.232H207V238.732L219.5 215.232V209.732L208 223.232L204 208.732V160.732H203.5H202.5V131.232L205.5 107.232V102.732V98.7325L207 96.7325V94.2325L201.5 96.7325H192.5V97.2325L194 98.7325V106.732L195.5 107.732V111.232L194 138.232L195 219.232H194H192.5L190.5 216.732H189L186.5 215.232H184.5V213.232H181L175.5 211.232L172 209.732H167.5L166.5 208.232H162.5V206.232H157L155.5 202.232V199.232L154 196.732V193.232L150 189.232V193.232L151.5 195.232V199.232L153 202.232V205.232H148.5L145.5 203.732H132L94.5 169.732V167.232H93V165.232H92V164.232L90.5 163.732V155.232H92V152.732H93V151.232V132.232L94.5 130.732V127.732L95 125.232L96 123.232L96.5 121.232L97 120.232L97.5 118.732L98 116.732L98.5 115.232L99.5 112.732L100.5 111.732L101 109.232L102 108.732L103.5 107.732L106 106.732H116L121.5 107.732L125.5 108.232H132L143 107.732L144 106.732H148.5L151.5 107.732H153L162.5 108.232V110.732L164.5 112.732H167.5L169.5 110.732L172 109.232H174H177.5L180 108.232L181 106.732H184.5L186.5 106.232V104.232V102.232L186 101.232V98.7325V96.2325H189H194H197.5H201.5L206 94.2325L210.5 91.7325H242L243.5 89.7325L245 88.7325L250 87.2325L255 84.7325H248L246 85.7325L234 86.2325L233 87.2325H227.5V89.2325H210.5L212.5 85.2325L225 75.7325L227.5 74.2325L230.5 73.2325L232.5 71.7325L234.5 71.2325L238 69.7325L243.5 67.2325V66.2325L246.5 65.7325V64.7325H249L249.5 63.2325H252V61.7325H255L256 60.2325V59.2325H254.5V60.2325H250.5V61.7325H247.5V63.2325H243.5V64.7325H241V66.2325H238V67.2325H235V69.2325H232.5L231.5 70.2325L228 71.2325L245 55.7325L244.5 53.2325L210.5 83.7325V82.2325V80.2325L212.5 77.7325V73.7325H214L214.5 72.2325L215.5 70.2325L214.5 65.7325V61.7325L216.5 60.2325L217 56.7325L218 55.7325V53.2325L219 51.7325V47.7325H221V44.2325L219 43.7325L212.5 61.2325L211 60.2325L214 51.7325L214.5 44.7325L210.5 44.2325V53.2325H209.5L209 50.7325H208L209 60.2325H206L201.5 58.7325H197.5L194 56.7325L189 55.7325L183.5 54.7325H176.5H169.5H164.5L159 55.7325L154 56.7325L149.5 60.2325V63.2325L162.5 75.7325V79.2325H157.5L148.5 70.2325L143 67.7325V65.2325L141.5 61.7325H132C131.333 62.8992 126.8 63.9325 114 58.7325L91.5 52.2325V38.7325L106 36.2325C119.6 31.8325 128.333 34.3991 131 36.2325L181.5 20.2325L137 26.2325L112 27.7325L106 26.2325L131 0H119.5L114 6.73248L89 26.2325H83L89 0L83 1.73248L79 20.2325L70.5 9.23248L65.5 1.73248V6.73248L53.5 0L48.5 1.73248L62 20.2325C50 16.7325 25.4 9.63247 23 9.23248C20.6 8.83248 31.6667 13.3991 37.5 15.7325L53.5 20.2325L70.5 36.2325L26 33.7325L58 38.7325L70.5 45.2325L73.5 56.2325L65.5 64.7325V72.7325L70.5 81.2325V166.232L62 159.732C59.2 154.532 51.8333 157.566 48.5 159.732L41.5 148.732H65.5C65.1 148.732 44.3333 136.399 34 130.232L62 127.232L34 109.232L62 106.732L34 85.7325L53.5 81.2325L44 76.7325C37 74.2325 34 73.7325 34 69.2325C34 65.6325 40.6667 64.7325 44 64.7325L31 58.7325C30.8333 56.5658 29.6 51.7325 26 49.7325C22.4 47.7325 29.8333 48.8991 34 49.7325L17.5 26.2325L1 49.7325L12 52.2325L1 58.7325Z" fill="url(#paint0_linear_4077_140)"/>
<defs>
<linearGradient id="paint0_linear_4077_140" x1="-12.5" y1="383" x2="1080" y2="383" gradientUnits="userSpaceOnUse">
<stop stop-color="#91140D"/>
<stop offset="0.458333" stop-color="#8B1C31"/>
<stop offset="1" stop-color="#781322"/>
</linearGradient>
</defs>
</svg>
