<svg width="1297" height="352" viewBox="0 0 1297 352" fill="none" xmlns="http://www.w3.org/2000/svg">
<path d="M81.4977 290.841C82.5068 290.445 83.4833 290.127 84.5287 289.84L540.02 164.711C545.165 163.297 550.429 163.128 555.638 164.282C635.324 181.942 1299.93 329.577 1296.38 340.239C1292.6 351.58 1152.06 340.239 1126.06 340.239C1101.38 340.239 1079.69 340.239 1077.55 340.239C1077.42 340.239 1077.31 340.239 1077.18 340.241L94.9918 351.574C94.6367 351.578 94.3365 351.586 93.9816 351.6C87.1119 351.874 8.29582 354.7 0.516818 340.239C-7.00452 326.256 69.8699 295.411 81.4977 290.841Z" fill="#FFCDBE"/>
<circle cx="743.669" cy="161.793" r="161.793" fill="#FFCDBE"/>
<circle cx="930.944" cy="212.972" r="114.681" fill="#FFCDBE"/>
<path d="M1126.51 307.986C1126.51 337.086 1054.88 330.669 1016.88 330.669C978.875 330.669 952.609 276.365 952.609 247.264C952.609 218.164 983.416 194.573 1021.42 194.573C1086 165.372 1166.16 258.495 1126.51 307.986Z" fill="#FFCDBE"/>
<circle cx="230.296" cy="245.728" r="79.389" fill="#FFCDBE"/>
<path d="M449.561 215.484C449.561 252.117 398.31 255.351 353.74 255.351C309.171 255.351 273.04 225.655 273.04 189.022C273.04 152.39 309.171 122.693 353.74 122.693C398.31 122.693 449.561 178.852 449.561 215.484Z" fill="#FFCDBE"/>
<circle cx="545.34" cy="175.168" r="114.681" fill="#FFCDBE"/>
</svg>
