<svg width="166" height="47" viewBox="0 0 166 47" fill="none" xmlns="http://www.w3.org/2000/svg">
<path d="M156.915 39.0314C155.892 38.593 154.841 38.2392 153.771 37.9355L103.922 23.7907C98.6249 22.2878 93.0717 22.1336 87.7063 23.3688C64.482 28.715 -0.395659 43.7683 0.00182054 45C0.485895 46.5 18.4818 45 21.8114 45C24.6321 45 27.1476 45 27.8507 45C27.981 45 28.1105 45.0008 28.2408 45.0023L153.354 46.4934C153.721 46.4978 154.083 46.5084 154.45 46.5198C156.679 46.5893 165.032 46.7311 165.934 45C166.737 43.4587 160.032 40.3679 156.915 39.0314Z" fill="#F9A891"/>
<ellipse cx="20.7172" cy="21.3988" rx="20.7172" ry="21.3988" transform="matrix(-1 0 0 1 91.4917 0)" fill="#F9A891"/>
<ellipse cx="14.6846" cy="15.1677" rx="14.6846" ry="15.1677" transform="matrix(-1 0 0 1 61.479 13)" fill="#F9A891"/>
<path d="M21.7531 40.7343C21.7531 44.5831 30.9252 43.7343 35.7912 43.7343C40.6573 43.7343 44.0205 36.552 44.0205 32.7032C44.0205 28.8543 40.0758 25.7342 35.2098 25.7342C26.9407 21.8721 16.6764 34.1886 21.7531 40.7343Z" fill="#F9A891"/>
<ellipse cx="10.1656" cy="10.5" rx="10.1656" ry="10.5" transform="matrix(-1 0 0 1 146.676 22)" fill="#F9A891"/>
<path d="M104 22.5C104 27.345 114.997 33.7728 120.704 33.7728C126.411 33.7728 131.037 29.8451 131.037 25.0001C133.5 15 126.411 11 120.704 11C114.997 11 104 17.655 104 22.5Z" fill="#F9A891"/>
<ellipse cx="14" cy="12.5" rx="14" ry="12.5" transform="matrix(-1 0 0 1 109 13)" fill="#F9A891"/>
</svg>
