<svg width="1090" height="981" viewBox="0 0 1090 981" fill="none" xmlns="http://www.w3.org/2000/svg">
<path d="M110.5 97.5L1 209L9 666.5C11.1667 654.333 18 623.5 28 597.5C38 571.5 39.5 551.333 39 544.5L51 491.5L59.5 440L70 390.5L102.5 287.5L75.5 345L51 381.5L9 465V339.5L102.5 198.5L145 133.5L185.5 92.5L221.5 60L247 34.5L267.5 1C249.5 15.3333 213.8 44 215 44C216.2 44 189.833 59.6667 176.5 67.5L110.5 97.5Z" fill="#140520"/>
<path d="M1083.5 967.5L1038 781L1021.5 710V649L1005 601C1001.44 580.858 994.676 543.617 991.494 529.227C990.239 525.009 989.634 522.767 990 523.5C990.285 524.069 990.806 526.113 991.494 529.227C995.721 543.432 1007.32 580.053 1014 601L1038 649C1037.5 643.5 1041.2 648 1060 710L1083.5 765V601L1060 577.5L1021.5 502L990 453L978.5 402.5L960 356L937.5 318.5L907.5 246.5C902.667 244.833 890.7 232.9 881.5 198.5L870 151L907.5 207L948.5 270.5L978.5 318.5L1014 361.5L1038 391.5L1076 416.5L1083.5 428L1089 980L1083.5 967.5Z" fill="#140520"/>
<path d="M110.5 97.5L1 209L9 666.5C11.1667 654.333 18 623.5 28 597.5C38 571.5 39.5 551.333 39 544.5L51 491.5L59.5 440L70 390.5L102.5 287.5L75.5 345L51 381.5L9 465V339.5L102.5 198.5L145 133.5L185.5 92.5L221.5 60L247 34.5L267.5 1C249.5 15.3333 213.8 44 215 44C216.2 44 189.833 59.6667 176.5 67.5L110.5 97.5Z" stroke="#140520"/>
<path d="M1083.5 967.5L1038 781L1021.5 710V649L1005 601C1001.44 580.858 994.676 543.617 991.494 529.227C990.239 525.009 989.634 522.767 990 523.5C990.285 524.069 990.806 526.113 991.494 529.227C995.721 543.432 1007.32 580.053 1014 601L1038 649C1037.5 643.5 1041.2 648 1060 710L1083.5 765V601L1060 577.5L1021.5 502L990 453L978.5 402.5L960 356L937.5 318.5L907.5 246.5C902.667 244.833 890.7 232.9 881.5 198.5L870 151L907.5 207L948.5 270.5L978.5 318.5L1014 361.5L1038 391.5L1076 416.5L1083.5 428L1089 980L1083.5 967.5Z" stroke="#140520"/>
</svg>
