<svg width="949" height="266" viewBox="0 0 949 266" fill="none" xmlns="http://www.w3.org/2000/svg">
<path d="M889.298 219.973C888.268 219.553 887.228 219.201 886.157 218.897L555.714 125.133C550.417 123.63 545.096 123.423 539.73 124.652C472.356 140.082 -2.55947 249.15 0.010194 257.112C2.776 265.683 105.597 257.112 124.621 257.112C142.445 257.112 158.137 257.112 160.046 257.112C160.176 257.112 160.305 257.113 160.436 257.114L878.8 265.676C879.167 265.68 879.499 265.689 879.866 265.704C885.869 265.946 942.445 267.931 948.08 257.112C953.491 246.722 899.198 224.01 889.298 219.973Z" fill="#FFECEA"/>
<ellipse cx="118.37" cy="122.264" rx="118.37" ry="122.264" transform="matrix(-1 0 0 1 522.75 0)" fill="#FFECEA"/>
<ellipse cx="83.902" cy="86.6622" rx="83.902" ry="86.6622" transform="matrix(-1 0 0 1 351.27 74.2769)" fill="#FFECEA"/>
<path d="M124.288 232.739C124.288 254.73 176.694 249.88 204.497 249.88C232.3 249.88 251.516 208.844 251.516 186.853C251.516 164.862 228.977 147.035 201.174 147.035C153.928 124.969 95.2824 195.34 124.288 232.739Z" fill="#FFECEA"/>
<ellipse cx="58.082" cy="59.9928" rx="58.082" ry="59.9928" transform="matrix(-1 0 0 1 838.047 125.699)" fill="#FFECEA"/>
<path d="M594.213 128.556C594.213 156.239 657.046 192.964 689.654 192.964C722.261 192.964 748.695 170.523 748.695 142.841C762.766 85.704 722.261 62.8496 689.654 62.8496C657.046 62.8496 594.213 100.873 594.213 128.556Z" fill="#FFECEA"/>
<ellipse cx="79.9904" cy="71.42" rx="79.9904" ry="71.42" transform="matrix(-1 0 0 1 622.782 74.2769)" fill="#FFECEA"/>
</svg>
