<svg width="1081" height="804" viewBox="0 0 1081 804" fill="none" xmlns="http://www.w3.org/2000/svg">
<path d="M64.5 228L1 210.5L5.5 803H1080.5V641V269.5V62.5V1L1070.5 2.5V14L1068.5 41L1054 34.5L1068.5 47C1069.17 54.3333 1070.5 69.4 1070.5 71V87.5V124.5L1061 149.5L1056 175.5L1061 199L1056 222.5L1051 249.5L1046 235L1041.5 217L1051 199L1041.5 175.5V149.5L1034.5 112.5V81L1041.5 62.5L1034.5 66.5L1038.5 24.5L1032 2.5H1014L1019 24.5L1014 66.5L1019 158V175.5L1025 199V269.5H1002L984 277.5L955 287.5L916.5 295.5L905 277.5L898.5 222.5L892.5 183V175.5L888 129L902.5 101L911 53.5L908 43V53.5L898.5 97L884.5 121.5L882 75.5L880 71L884.5 28.5L882 2.5H863.5V28.5L859.5 62.5L867.5 149.5L872 208.5L855.5 210.5L838 197H833L824.5 193L820.5 186.5L811.5 179.5L799 168L811.5 183L820.5 193L807.5 204.5L817 199L838 202L855.5 217H872L877 281L882 329.5L867.5 338.5L847 338L857.5 336.5L847.5 330.5L847 329.5H853.5L849.5 324L843 309.5L838 318.5L825.5 329.5L833 331.5L824.5 338.5H833L766 357.5L719 370L672.5 379.5H609L599.5 375.5L594.5 324L599.5 313.5L629 309.5L600.5 310.5L607.5 304.5L620.5 298L636 291L618 295.5L626 287.5L604.5 304.5L603 295.5L609 277.5H603L599.5 287.5V298L594.5 309.154L588 305.5L572.5 295.5L584.5 309.154L588 310.5V315.5L570 313.5L591 321V375.5L544.5 379.5L482 363L488 354.5L478 363L454.5 354.5L451.5 342V353.5L430 345L427 338.5V342L412.5 338.5L373 324L369 321L361.5 313.5L369 310.5L361.5 305.5L355.5 298L352 305.5V317.25L355.5 321L319.5 338.5L290.5 342L262 338.5L229.5 326.5L221.5 311.5L215.5 256.5V218L211 210.5V173L207 147.5V129L204.5 96L215.5 83.5L244 64.5L253 39V27.5L248.5 43L241.5 58.5L215.5 77.5L202 83.5V62L209 44.5L207 2.5H188.5V43L182 80.5L185.5 124.5V173L191.5 218V281.5L165 271.5L159.5 266.5L165 235V210.5V182L169.5 153.5V124.5V100.5L175 62L180 33L182 2.5H165L162.5 31.5L155 61.5H150.5L131.5 51.5L124.5 44.5V31.5C123.833 34 122.3 39.8 121.5 43C120.7 46.2 118.5 41.6667 117.5 39L115 31.5L108 10L111.5 23.5L115 44.5L139 62L152 70L144.5 112.5V153.5L137 198V228L127.5 256.5L121.5 245.5L115 210.5V173L111.5 153.5L105.5 115.5L104 91L99.5 58.5L104 20V2.5H75L80 31.5V62L84 80.5V112.5L89 168.5L95.5 245.5L64.5 228Z" fill="url(#paint0_linear_4083_141)"/>
<path d="M348.5 313.5L352 317.25M352 317.25L355.5 321L319.5 338.5L290.5 342L262 338.5L229.5 326.5L221.5 311.5L215.5 256.5V218L211 210.5V173L207 147.5V129L204.5 96L215.5 83.5L244 64.5L253 39V27.5L248.5 43L241.5 58.5L215.5 77.5L202 83.5V62L209 44.5L207 2.5H188.5V43L182 80.5L185.5 124.5V173L191.5 218V281.5L165 271.5L159.5 266.5L165 235V210.5V182L169.5 153.5V124.5V100.5L175 62L180 33L182 2.5H165L162.5 31.5L155 61.5H150.5L131.5 51.5L124.5 44.5V31.5C123.833 34 122.3 39.8 121.5 43C120.7 46.2 118.5 41.6667 117.5 39L115 31.5L108 10L111.5 23.5L115 44.5L139 62L152 70L144.5 112.5V153.5L137 198V228L127.5 256.5L121.5 245.5L115 210.5V173L111.5 153.5L105.5 115.5L104 91L99.5 58.5L104 20V2.5H75L80 31.5V62L84 80.5V112.5L89 168.5L95.5 245.5L64.5 228L1 210.5L5.5 803H1080.5V641V269.5V62.5V1L1070.5 2.5V14L1068.5 41L1054 34.5L1068.5 47C1069.17 54.3333 1070.5 69.4 1070.5 71V87.5V124.5L1061 149.5L1056 175.5L1061 199L1056 222.5L1051 249.5M352 317.25V305.5L355.5 298L361.5 305.5L369 310.5L361.5 313.5L369 321L373 324L412.5 338.5L427 342V338.5L430 345L451.5 353.5V342L454.5 354.5L478 363L488 354.5L482 363L544.5 379.5L591 375.5V321L570 313.5L588 315.5V310.5L584.5 309.154M575 305.5L584.5 309.154M584.5 309.154L572.5 295.5L588 305.5L594.5 309.154L599.5 298V287.5M599.5 287.5L594.5 281M599.5 287.5L603 277.5H609L603 295.5L604.5 304.5L626 287.5L618 295.5L636 291L620.5 298L607.5 304.5L600.5 310.5L629 309.5L599.5 313.5L594.5 324L599.5 375.5L609 379.5H672.5L719 370L766 357.5L833 338.5H824.5L833 331.5L825.5 329.5L838 318.5L843 309.5L849.5 324L853.5 329.5H847L847.5 330.5L857.5 336.5L847 338L867.5 338.5L882 329.5L877 281L872 217H855.5L838 202L817 199L807.5 204.5L820.5 193L811.5 183L799 168L811.5 179.5L820.5 186.5L824.5 193L833 197H838L855.5 210.5L872 208.5L867.5 149.5L859.5 62.5L863.5 28.5V2.5H882L884.5 28.5L880 71L882 75.5L884.5 121.5L898.5 97L908 53.5V43L911 53.5L902.5 101L888 129L892.5 175.5V183L898.5 222.5L905 277.5L916.5 295.5L955 287.5L984 277.5L1002 269.5H1025V199L1019 175.5V158L1014 66.5L1019 24.5L1014 2.5H1032L1038.5 24.5L1034.5 66.5L1041.5 62.5L1034.5 81V112.5L1041.5 149.5V175.5L1051 199L1041.5 217L1046 235L1051 249.5M1051 249.5L1050 273" stroke="#AA2B29"/>
<defs>
<linearGradient id="paint0_linear_4083_141" x1="1081" y1="333" x2="-15.5" y2="346" gradientUnits="userSpaceOnUse">
<stop stop-color="#CB4C07"/>
<stop offset="0.505208" stop-color="#B2312E"/>
<stop offset="1" stop-color="#D15306"/>
</linearGradient>
</defs>
</svg>
