<svg width="172" height="47" viewBox="0 0 172 47" fill="none" xmlns="http://www.w3.org/2000/svg">
<path d="M9.46481 38.9979C10.4665 38.5833 11.4959 38.2474 12.5413 37.9603L64.6249 23.6522C69.7701 22.2388 75.1349 22.0911 80.3431 23.2514C103.86 28.4911 171.873 43.7592 171.459 45C170.959 46.5 152.371 45 148.932 45C146.001 45 143.388 45 142.681 45C142.555 45 142.43 45.0007 142.304 45.0022L13.0259 46.4939C12.6708 46.498 12.3191 46.5079 11.9641 46.5188C9.71295 46.5878 1.00417 46.7397 0.0683545 45C-0.767761 43.4457 6.28171 40.3156 9.46481 38.9979Z" fill="#F9A891"/>
<circle cx="98.3582" cy="21.3988" r="21.3988" fill="#F9A891"/>
<circle cx="123.127" cy="28.1677" r="15.1677" fill="#F9A891"/>
<path d="M148.993 40.7343C148.993 44.5831 139.519 43.7343 134.493 43.7343C129.467 43.7343 125.993 36.552 125.993 32.7032C125.993 28.8543 130.067 25.7342 135.093 25.7342C143.634 21.8721 154.236 34.1886 148.993 40.7343Z" fill="#F9A891"/>
<circle cx="30.4595" cy="32.5" r="10.5" fill="#F9A891"/>
<path d="M59.4595 28.5C59.4595 33.345 52.681 33.7728 46.7862 33.7728C40.8914 33.7728 36.1128 29.8451 36.1128 25.0001C36.1128 20.1551 40.8914 16.2274 46.7862 16.2274C52.681 16.2274 59.4595 23.655 59.4595 28.5Z" fill="#F9A891"/>
<circle cx="72.1272" cy="23.1677" r="15.1677" fill="#F9A891"/>
</svg>
