<svg width="1080" height="814" viewBox="0 0 1080 814" fill="none" xmlns="http://www.w3.org/2000/svg">
<path d="M1 107.732L0 814H4H1079.5L1077 264.732H983.5L976 255.732L974.5 254.232V251.232H977H980.5L982 254.232L987 257.732L1023 259.232L1027.5 257.732H1032L1035 255.732L1038.5 257.732L1042 255.732L1046 254.232V251.232L1042 247.732H1037L1014 227.232L988 226.232L970.5 205.732L969 202.232H976L982 203.732L986 204.232L991 205.232L999 207.732L1003.5 205.732L1008 201.232L1001.5 199.232L992.5 195.232L986 193.232L981 190.732L976 187.232L972.5 184.732L969 182.732L966.5 180.232L965 178.232L963.5 174.732V169.232H965L968 170.232H972.5L974 170.732L977 172.732L981 173.732L984.5 174.232H987L989.5 174.732L992.5 175.732H996L1002 173.232L996.5 168.732L991 166.232L986 164.732H980.5L976.5 163.232L972 158.232L969 155.732L966.5 151.732L965 147.232L964.5 144.732H967.5L971 148.232L976 150.232H982H988L994.5 149.232L1005 147.732L988 133.232H984.5V132.232L969 120.232V117.732H967.5L966.5 115.232V113.232L969 112.232L974.5 115.232L980 114.732L983.5 113.232L986 112.232L992 109.232L991.5 106.732H985.5L982 105.732L976 100.732L974 99.7325L973.5 100.732V102.232H970.5L964.5 96.2325V93.7325L966.5 93.2325V92.7325L969 91.7325V90.7325H978L979 89.7325V88.2325L959.5 75.2325V73.7325L960 72.7325V67.7325L956.5 65.2325V63.2325L965 60.7325V58.7325L952.5 48L956.5 46.5L942 31L923.5 49.7325H931L917.5 63.2325L936.5 67.7325V69.7325L909.5 88.7325L923.5 89.7325V93.2325L892 105.732L909.5 114.732L917.5 112.232V122.732L883 145.232L885.5 146.232H896.5L898.5 145.232L902 144.732L905 143.232L908.5 141.232L909.5 142.232H913.5L916 145.232V150.232L913.5 154.732L909.5 158.232L903.5 161.232L898.5 163.232L872 161.232L873.5 163.232L881 169.732L892 173.232H916V178.232L896 192.732H889L873.5 185.232L867 191.232L876 202.732L881 204.232H896L898.5 202.732L901 200.232L906.5 201.232L909.5 202.732V207.732L906.5 209.732L903.5 211.732L896 214.232H876L885.5 220.232V222.732H883L872 225.732L867 235.232H859.5L844 230.732H837.5V235.232L849.5 246.732L846 247.732H827.5V249.232L849.5 255.732L867 254.232L879 251.232L906.5 249.232L909.5 250.732V255.732L878 276.732L854.5 278.232L842 290.732L802.5 294.732L808.5 298.232L821.5 303.232L837.5 303.732H858.5L876 302.232L898.5 298.732L903.5 299.232V303.232L901 307.232L878 324.732L873.5 325.732L867 326.732L857 330.732L849.5 334.232L844 335.232L837.5 336.732L833 339.232H827.5V337.732L813 338.232V343.232L831.5 358.232L815 391.732V393.232L813 395.732L810.5 397.232L806 401.732L805 402.732L803 403.232L802.5 404.232H799V405.232H795V407.232H790.5V408.232L786.5 408.732H785L780.5 408.232L782.5 405.232L783.5 402.732L784 399.732L786.5 394.732L787 391.732L789 389.232V385.732L790.5 383.732V380.232L792 378.232L792.5 376.232L793 372.732L794.5 370.732L795 366.232L796 364.232L797.5 360.732L797 356.232L790.5 371.232L789 375.232L783.5 382.232L779 391.232L773.5 399.232L769.5 404.232H768L769 338.232V331.732L768 326.732V307.732V255.732L768.5 250.732H769.5V249.232H770.5V247.732H772V246.732H775V245.232H778V244.232H788V242.732H796V241.232H786V242.732H775L773.5 244.232H769.5V242.732L773.5 239.732L775 238.232L776.5 237.232L778 236.232L779 235.732L780.5 235.232L782 234.232L785 233.732L786 232.732L787 231.232H793.5L796 229.732L797.5 228.232V227.232H793.5L792 228.732H790L789 229.732L785 230.232V231.232H781L778 232.732L776.5 234.232L775 232.732V230.732L776.5 229.732L779 228.232L780.5 226.732L783.5 224.232L786 222.732L789 221.232L792 219.732L795 218.232L797.5 216.732L799.5 215.732V214.232L800.5 213.232H798V214.232H795.5L792 215.732L791 217.232L787.5 218.732L785 220.232L783.5 221.232V219.732L785 218.232V202.732H783.5V215.732L783 217.232L781 219.732L779.5 221.732L772 226.732V212.732H770.5V227.232H769.5L765 231.232V232.732H764L763.5 229.732H762V225.732L761 225.232V221.732L758 219.732V222.732H759.5V228.732H761V234.232H762V238.732V239.732L761 239.232L760 238.232H759.5V237.232L757.5 235.732V234.232H756.5L756 226.732L755 225.232V214.232H754V210.232V202.732L761 194.232L762 191.732L759.5 192.732L752.5 200.232L752 197.232H751V191.732L749.5 191.232L748 190.232H746.5V191.232L748 192.732V197.232H750L749.5 204.732L751 212.732L749.5 205.732H747.5L748 204.232H746.5V200.232H745.5V195.732H744V192.732H742.5V190.232H739.5V192.732H741V197.232H742.5V201.232H744V206.232H745.5V209.732L746.5 210.232V212.732H748V215.732H749.5L750 220.732H751V225.232L752.5 226.732L752 234.232L734.5 218.732L732 217.232L728 214.232L715.5 201.232H712.5L714.5 204.232L727 217.232L728 218.732L724 216.232L716.5 212.732L704.5 207.232L700 206.232L701.5 208.232L718.5 217.232L730 222.732L742.5 230.732L750 237.232L751 237.732L750 239.232L729 237.732H722V235.732H703L704.5 237.732H709.5H711L719.5 240.732H724.5L729 242.732L734.5 244.232H751.5L756 246.732L757.5 256.732L759.5 261.232V319.232L757.5 320.232V345.732L753.5 351.232H750L746.7 346.232L751.5 348.232V344.232L741.5 336.232V334.732H748V331.732L740 321.232L738.5 319.232H736V320.232L734.5 325.232L732 328.232L724.5 340.732L723 344.232L721 345.732L718.5 347.232V348.232L721 348.732L723 349.732V352.232H719.5H716V354.732L717.5 356.232H719.5L722 357.732L725.5 359.732V361.232L723 363.732L721 364.232L718.5 366.232L714.5 367.732L709.5 368.732V370.232L712.5 372.232H716L718.5 370.232L722 368.732H725.5V372.232L723 374.232L722 377.232L716 379.732L709.5 380.232L711 382.232H726.5V387.232L725.5 388.732L723 389.232L719.5 389.732L716 391.232L711 392.732L706 395.732V397.232H707.5L712.5 395.732L717.5 394.232H723V396.232L717.5 397.732L712.5 400.732L704.5 404.232L700 406.732L698.5 409.732H694V411.232H692.5V412.732H691H686.5V413.732H683.5L682 412.732L681 411.232H679L672.5 408.232L671.5 404.232L676.5 405.232H683.5L683 404.232H688L687.5 402.732H691.5L691 400.732H693.5V399.732H698.5L698 398.732L696.5 398.232H694H691.5L689.5 397.732L686.5 397.232L682 396.732L681 396.232L679 395.732L678 394.232H675L674 393.232L671.5 392.732L670.5 391.232H665L664.5 390.232L659.5 389.232L657.5 388.732L656.5 387.232H654.5L652.5 385.732L650 382.232V379.232L655.5 380.232L658.5 381.232L661.5 381.732L664.5 382.232L668.5 382.732L675 382.232L676 381.732L684 381.232L685.5 379.732L686.5 378.732L683 376.232L681 374.232L674 373.732L671.5 372.232L668 370.232L667 368.732V367.732L665.5 366.232H659V364.232L654.5 363.732V362.232L659 361.232V360.232L662 359.732L666 359.232L668.5 357.732V353.232H665.5L664.5 354.732H663L661 353.232L659 352.232L652.5 351.232L649.5 349.732L648 348.732V346.232L649.5 347.232H658.5L659 346.232L661.5 345.732L665.5 341.732H662L661 343.232H656V341.732H652V340.732L647 336.232V333.732H649.5V334.732L653 337.732L661 337.232V333.732L658.5 331.732L658 329.732L656.5 328.232L655 326.732L652.5 326.232L650.5 325.232L647.5 323.732V320.232H650.5H652.5L654.5 319.232L657 318.232L658.5 317.232L657 316.232L654.5 315.232L648 314.232L646.5 313.232L647 311.732H652.5V310.732L641 300.232V298.732L644 300.232L647.5 299.232L647 296.732L642 290.232L640.5 288.732V286.732H638.5V283.732H637V282.232H636V283.732L630 294.732L627.5 296.732H625L623.5 298.732H620L622.5 300.732H627.5V303.232L625 305.732L622.5 308.232L619 309.732V310.732L620 312.732H622.5V315.232L620 316.232H617L615 318.232L615.5 319.232L617 320.232H623.5V323.732L619 328.732H615L613 330.232L610.5 331.732H607L607.5 333.732L610.5 336.232H613H615H617H619L620 333.732H622.5H625V336.232L622.5 339.232L617 341.732L610.5 344.232V346.232H613H615L617 348.232L619 348.732H620L622.5 348.232L625 346.232V349.732L610.5 356.232L607.5 357.732L607 359.732L608 361.232L619 358.732V362.232L604 366.232L597.5 374.732H593.5V375.732L591 376.232V377.732H589.5H588V379.232H587L587.5 380.232H590.5L591 381.732H601.5L604 382.732L603.5 386.232H605V387.232H603.5V388.732L605 389.732V391.232H603H602V392.732H601L598.5 393.232V394.232H596V395.732H592L593 397.232H590.5L591 398.732H585.5V399.732H582.5V401.232H578.5V402.732H575.5V404.232H569.5V405.732H565.5V407.232H561.5V408.732H552.5V406.732L551 405.732V402.732L550 401.232L549.5 380.232H548L547.5 397.232L546 403.732L544 408.232L542 412.732L508.5 416.732L507 419.732L481.5 426.732L467.5 421.232L466 416.732V412.732L464.5 398.732H463V419.732L446 412.732L427.5 405.732H416.5V403.732L422.5 386.232L423.5 384.232V381.732L423 381.232L422.5 381.732L396 415.732L392.5 415.232L387.5 409.732L364 384.232V383.232H358V381.732H353V380.232H350V379.232H349.5H348V377.232H352.5L352 375.732H348.5H346.5C346.167 375.566 345.5 375.132 345.5 374.732C345.5 374.332 344.5 374.566 344 374.732L341 374.232L340.5 372.732H338.5L337 371.732L335 371.232L334.5 370.732L332 370.232L331.305 369.232L330 368.732L329.5 368.232V367.232L330 366.732L331.305 366.232L332 366.732H334H335.5H337.5H339.5L346.5 365.732H348.5H350H351.5L353.5 364.732L354 364.232H356H358L358.5 362.732H361C361.5 362.566 362.6 362.132 363 361.732C363.4 361.332 363.5 360.566 363.5 360.232L364.5 358.732L365.5 357.732H363C362.6 357.732 361.833 358.066 361.5 358.232L359.5 359.232L357.5 360.232H356L354.5 359.732L353 359.232L352 358.232L348.5 357.732H346L344.5 357.232L341 355.732L337.5 354.732L334 353.232C333.333 352.732 331.861 351.632 331.305 351.232C330.609 350.732 330.5 350.732 330 350.232C329.5 349.732 329 349.732 328.5 348.732C328 347.732 327.5 347.732 327 347.232C326.5 346.732 325 346.732 325 346.232C325 345.832 324.333 345.066 324 344.732L323 343.232V340.232L329 340.732L329.5 341.732H334V343.232H358.5V341.732H362.5V341.232V340.732L368 339.732L370 337.732H367.5H365.5H363.5H361.5H359.5H357L355.5 337.232L353.5 336.732L352 335.732H350L348.5 335.232C347.833 335.066 346.4 334.632 346 334.232C345.6 333.832 344.5 333.399 344 333.232L341 332.232L338 331.232L335 330.232L332 329.232L330 327.732L328.5 326.732C328 326.732 326.8 326.632 326 326.232L324 325.232C323 324.732 322.5 324.732 322 324.232C321.5 323.732 320.5 323.732 320 323.232C319.6 322.832 319.167 322.732 319 322.732V321.732C318.833 321.232 318.6 320.232 319 320.232C319.4 320.232 319.5 319.232 319.5 318.732V317.732L321 317.232L323.5 317.732L325 318.232H327.5L328.5 318.732H329.5L330.5 319.732C330.9 320.132 331.203 320.232 331.305 320.232H332.5H334H335L336.5 321.232H338H339.5H342H344H346L348 320.732H351H353.5L354.5 319.232L355.5 317.732L354.5 316.732V314.732C354 314.399 352.8 313.532 352 312.732C351 311.732 350 312.732 349.5 312.732H346.5L342 311.232H339.5L337 307.732L335 306.232L332.5 303.732H326V300.732L327.5 300.232H332.5L336 299.232V297.732H339L339.5 296.232L339 293.732H338L337 292.232L336 293.732V295.232H334L333 293.732L331.305 292.232H328.5L327.5 291.232L325 290.732L323 289.732L319.5 289.232V286.732H322H325L328.5 285.732H330H333L334 283.732L337 282.232V281.232H327.5H325V279.732H323L322 278.232L321.5 277.732L320.5 276.732L319.5 275.232V272.732L323 274.232V275.232H325L327.5 276.732H333L334 274.232L333 273.732L331.5 270.732L330 269.732L328.708 268.232L326 265.732V263.732L320.5 262.732L318 259.732H326L325 258.232H330L328.5 255.732H326L325 254.232H323H322L320.5 252.732H319.5L318 251.439H316.5V250.232H323L322 248.232L319.5 246.732L318 245.232L316.5 243.732V242.232C315.833 242.066 314.3 241.532 313.5 240.732L312.5 239.732V238.732H318V237.232V235.732L316.5 234.732V232.232H315L313.5 229.232C313.1 228.432 312.667 228.232 312.5 228.232L311.5 227.232V225.232L310 224.232L308 222.732V221.732H307V222.732V224.232L305.5 225.232L304.5 227.232L303.5 229.232L302 232.232L300 234.732L298.5 235.732V242.232L296 246.732H292L289 248.232V250.232L293 252.732V255.732H286V258.232H289V259.732H290.5V261.232H294.5V262.732H293V263.732H291.5L292 265.232L290.5 265.732V266.732H289V268.232H284.5V269.732H283V270.732H279V272.232L277.5 272.732V273.732H278L279 274.232V275.232H280.5H291.5V273.732H293V272.232H294.5V276.732H293V278.232H291.5V279.732H288.5V281.232H286V282.232H283V283.732H279V286.732H289L292 289.232V286.732H296V288.232H295L294.5 289.732L277.5 297.732H279H292V299.232H290.5V300.732C287.3 299.318 267.167 312.477 257.5 319.232H256.5V320.732L272.5 321.732H280H284L287.5 320.732V317.732H291.5V325.232H290.5H289V326.232H279V324.732H269C268.833 324.399 268.6 323.732 269 323.732H260.5V322.232H259H254.5L254 320.732H252V313.232H250.5V319.232H242V317.732H236.5V316.232L229.5 307.732H227V310.732H220.5L216.5 310.232L216 308.732L208 295.732V292.232H207V287.732L219.5 264.232V258.732L208 272.232L204 257.732V209.732H203.5H202.5V180.232L205.5 156.232V151.732V147.732L207 145.732V143.232L201.5 145.732H192.5V146.232L194 147.732V155.732L195.5 156.732V160.232L194 187.232L195 268.232H194H192.5L190.5 265.732H189L186.5 264.232H184.5V262.232H181L175.5 260.232L172 258.732H167.5L166.5 257.232H162.5V255.232H157L155.5 251.232V248.232L154 245.732V242.232L150 238.232V242.232L151.5 244.232V248.232L153 251.232V254.232H148.5L145.5 252.732H132L94.5 218.732V216.232H93V214.232H92V213.232L90.5 212.732V204.232H92V201.732H93V200.232V181.232L94.5 179.732V176.732L95 174.232L96 172.232L96.5 170.232L97 169.232L97.5 167.732L98 165.732L98.5 164.232L99.5 161.732L100.5 160.732L101 158.232L102 157.732L103.5 156.732L106 155.732H116L121.5 156.732L125.5 157.232H132L143 156.732L144 155.732H148.5L151.5 156.732H153L162.5 157.232V159.732L164.5 161.732H167.5L169.5 159.732L172 158.232H174H177.5L180 157.232L181 155.732H184.5L186.5 155.232V153.232V151.232L186 150.232V147.732V145.232H189H194H197.5H201.5L206 143.232L210.5 140.732H242L243.5 138.732L245 137.732L250 136.232L255 133.732H248L246 134.732L234 135.232L233 136.232H227.5V138.232H210.5L212.5 134.232L225 124.732L227.5 123.232L230.5 122.232L232.5 120.732L234.5 120.232L238 118.732L243.5 116.232V115.232L246.5 114.732V113.732H249L249.5 112.232H252V110.732H255L256 109.232V108.232H254.5V109.232H250.5V110.732H247.5V112.232H243.5V113.732H241V115.232H238V116.232H235V118.232H232.5L231.5 119.232L228 120.232L245 104.732L244.5 102.232L210.5 132.732V131.232V129.232L212.5 126.732V122.732H214L214.5 121.232L215.5 119.232L214.5 114.732V110.732L216.5 109.232L217 105.732L218 104.732V102.232L219 100.732V96.7325H221V93.2325L219 92.7325L212.5 110.232L211 109.232L214 100.732L214.5 93.7325L210.5 93.2325V102.232H209.5L209 99.7325H208L209 109.232H206L201.5 107.732H197.5L194 105.732L189 104.732L183.5 103.732H176.5H169.5H164.5L159 104.732L154 105.732L149.5 109.232V112.232L162.5 124.732V128.232H157.5L148.5 119.232L143 116.732V114.232L141.5 110.732H132C131.333 111.899 126.8 112.932 114 107.732L91.5 101.232L87 87.7325L106 85.2325C119.6 80.8325 128.333 79.6667 131 81.5L181.5 69.2325L137 75.2325L112 76.7325L98.5 75.2325L131 49L119.5 58.2325L89 75.2325H83L87 50.5L94 38.5L86 48L85 38.5L81 20L76.5 0L79 21.5L83 49L73.5 78L60 58.2325L64 20L58 55.7325L53.5 49L44 38.5L62 69.2325C50 65.7325 25.4 58.6325 23 58.2325C20.6 57.8325 31.6667 62.3991 37.5 64.7325L53.5 69.2325L70.5 85.2325L26 82.7325L58 87.7325L70.5 94.2325L73.5 105.232L65.5 113.732V121.732L70.5 130.232V215.232L62 208.732C59.2 203.532 51.8333 206.566 48.5 208.732L41.5 197.732H65.5C65.1 197.732 44.3333 185.399 34 179.232L62 176.232L34 158.232L62 155.732L34 134.732L53.5 130.232L44 125.732C37 123.232 34 122.732 34 118.232C34 114.632 40.6667 113.732 44 113.732L31 107.732C30.8333 105.566 29.6 100.732 26 98.7325C22.4 96.7325 29.8333 97.8991 34 98.7325L17.5 75.2325L1 98.7325L12 101.232L1 107.732Z" fill="url(#paint0_linear_4077_140)"/>
<defs>
<linearGradient id="paint0_linear_4077_140" x1="-12.5" y1="432" x2="1080" y2="432" gradientUnits="userSpaceOnUse">
<stop stop-color="#91140D"/>
<stop offset="0.458333" stop-color="#8B1C31"/>
<stop offset="1" stop-color="#781322"/>
</linearGradient>
</defs>
</svg>
