<svg width="1080" height="667" viewBox="0 0 1080 667" fill="none" xmlns="http://www.w3.org/2000/svg">
<path d="M16.5 59.9996C10.7949 55.6322 7.50008 54.1392 1.5 52.4996L0 666.5H1080V96.5L1077 99.5C1077 99.5 1054 99.5 1042 103.5C1030 107.5 1026.38 101.813 1013.5 96.5C1000.62 91.1866 991.93 92.0713 983 96.5C974.07 100.929 921.8 150.8 921 150C920.2 149.2 907.667 114 901.5 96.5L911 167.5L882 124L863 99.5L871 122.5L873.5 147L847.5 131L877.5 161L883.5 195L891.5 202C891.5 202 880 239.5 875.5 235.5C871 231.5 863 235.5 863 235.5C863 235.5 826 270 809 270C792 270 801.5 262 792 260C782.5 258 766 258 766 258L755.5 229L766 166L745 204.5L724 153.5L712 131L719 166L735.5 224L739.5 258L735.5 260C735.5 260 743.75 277.5 731 280C718.25 282.5 724 280 724 280L701 290L682.5 292.5L666 279C655.779 273.216 650.575 272.793 642 276.5L628 282.5L601 294.5L567.5 300.5L564.5 270L554.5 245.5L561 270L562.5 300.5L554.5 302.5L549.5 276.5L529 235.5L540.5 285L544.5 302.5L486 305.5L507 251.5L527 195L495.5 241.5L493.5 224L492 250L471 282.5H446L443 241.5L430 217L421.5 187.5V209L430 239L423.5 279L415 272.5L389 279L393.5 290L372.5 282.5L376.5 279V264L393.5 225.5L404 194L410 170L430 146L415 156.5L423.5 131L404 161L376.5 204L364 165L369 213L338.5 264L312.5 250C278.001 237.119 279.517 254.322 260 259L181.5 194L191 177L215 161L251 146L191 151L203 140V112.5L215 86.5L197 104L181.5 131L160.5 165L157 156.5L147 104V146L72.5 109L58.5 90L72.5 43L62 59.9996L40.5 93.5L33 86.5L31.5 83.5L42.5 0C42.5 0 27.0515 32.7944 16.5 59.9996Z" fill="url(#paint0_linear_4060_17)"/>
<defs>
<linearGradient id="paint0_linear_4060_17" x1="540" y1="0" x2="540" y2="666.5" gradientUnits="userSpaceOnUse">
<stop stop-color="#3D072A"/>
<stop offset="1" stop-color="#190415"/>
</linearGradient>
</defs>
</svg>
